<svg xmlns="http://www.w3.org/2000/svg" xmlns:xlink="http://www.w3.org/1999/xlink" contentStyleType="text/css" data-diagram-type="ACTIVITY" height="1822px" preserveAspectRatio="none" style="width:667px;height:1822px;background:#FAFBFC;" version="1.1" viewBox="0 0 667 1822" width="667px" zoomAndPan="magnify"><?plantuml 1.2026.3beta6?><defs><filter height="300%" id="falyd7uk1y48u" width="300%" x="-1" y="-1"><feGaussianBlur result="blurOut" stdDeviation="2"/><feColorMatrix in="blurOut" result="blurOut2" type="matrix" values="0 0 0 0 0 0 0 0 0 0 0 0 0 0 0 0 0 0 .4 0"/><feOffset dx="4" dy="4" in="blurOut2" result="blurOut3"/><feBlend in="SourceGraphic" in2="blurOut3" mode="normal"/></filter></defs><g><rect fill="#FAFBFC" height="1822" style="stroke:none;stroke-width:1;" width="667" x="0" y="0"/><rect fill="none" height="13.9688" style="stroke:none;stroke-width:1;" width="620.2711" x="20" y="16.3301"/><ellipse cx="131.0006" cy="45.2988" fill="#222222" filter="url(#falyd7uk1y48u)" rx="10" ry="10" style="stroke:#222222;stroke-width:1;"/><rect fill="#E3F2FD" filter="url(#falyd7uk1y48u)" height="33.9688" rx="12.5" ry="12.5" style="stroke:#1565C0;stroke-width:0.5;" width="155.791" x="53.1051" y="75.2988"/><text fill="#0D47A1" font-family="'Microsoft YaHei,Arial,sans-serif'" font-size="12" lengthAdjust="spacing" textLength="135.791" x="63.1051" y="96.4375">HTTP GET /rag/v3/chat</text><rect fill="#E3F2FD" filter="url(#falyd7uk1y48u)" height="47.9375" rx="12.5" ry="12.5" style="stroke:#1565C0;stroke-width:0.5;" width="144.1543" x="58.9235" y="129.2676"/><text fill="#0D47A1" font-family="'Microsoft YaHei,Arial,sans-serif'" font-size="12" lengthAdjust="spacing" textLength="72.0005" x="68.9235" y="150.4063">&#24130;&#31561;&#25552;&#20132;&#25318;&#25130;</text><text fill="#0D47A1" font-family="'Microsoft YaHei,Arial,sans-serif'" font-size="12" lengthAdjust="spacing" textLength="124.1543" x="68.9235" y="164.375">@IdempotentSubmit</text><rect fill="#FFCDD2" filter="url(#falyd7uk1y48u)" height="33.9688" rx="12.5" ry="12.5" style="stroke:#1565C0;stroke-width:0.5;" width="139.0399" x="61.4807" y="246.1895"/><text fill="#0D47A1" font-family="'Microsoft YaHei,Arial,sans-serif'" font-size="12" lengthAdjust="spacing" textLength="119.0399" x="71.4807" y="267.3281">&#36820;&#22238;"&#24403;&#21069;&#20250;&#35805;&#22788;&#29702;&#20013;"</text><ellipse cx="131.0006" cy="319.6738" fill="none" filter="url(#falyd7uk1y48u)" rx="11" ry="11" style="stroke:#222222;stroke-width:1;"/><ellipse cx="131.0006" cy="319.6738" fill="#222222" rx="6" ry="6" style="stroke:#222222;stroke-width:1;"/><polygon fill="#FFF9C4" filter="url(#falyd7uk1y48u)" points="47,197.2051,215.0013,197.2051,227.0013,209.2051,215.0013,221.2051,47,221.2051,35,209.2051,47,197.2051" style="stroke:#F9A825;stroke-width:0.5;"/><text fill="#000000" font-family="'Microsoft YaHei,Arial,sans-serif'" font-size="12" lengthAdjust="spacing" textLength="12.0001" x="135.0006" y="232.3438">&#26159;</text><text fill="#5D4037" font-family="'Microsoft YaHei,Arial,sans-serif'" font-size="12" lengthAdjust="spacing" textLength="168.0013" x="47" y="213.3594">&#21516;&#19968;&#29992;&#25143;&#26159;&#21542;&#26377;&#35831;&#27714;&#27491;&#22312;&#22788;&#29702;&#65311;</text><text fill="#000000" font-family="'Microsoft YaHei,Arial,sans-serif'" font-size="12" lengthAdjust="spacing" textLength="12.0001" x="227.0013" y="206.375">&#21542;</text><rect fill="#E3F2FD" filter="url(#falyd7uk1y48u)" height="47.9375" rx="12.5" ry="12.5" style="stroke:#1565C0;stroke-width:0.5;" width="129.5293" x="66.236" y="372.6738"/><text fill="#0D47A1" font-family="'Microsoft YaHei,Arial,sans-serif'" font-size="12" lengthAdjust="spacing" textLength="84.0006" x="76.236" y="393.8125">&#38431;&#21015;&#24335;&#24182;&#21457;&#38480;&#27969;</text><text fill="#0D47A1" font-family="'Microsoft YaHei,Arial,sans-serif'" font-size="12" lengthAdjust="spacing" textLength="109.5293" x="76.236" y="407.7813">ChatQueueLimiter</text><rect fill="#FFCDD2" filter="url(#falyd7uk1y48u)" height="33.9688" rx="12.5" ry="12.5" style="stroke:#1565C0;stroke-width:0.5;" width="92.0005" x="85.0004" y="489.5957"/><text fill="#0D47A1" font-family="'Microsoft YaHei,Arial,sans-serif'" font-size="12" lengthAdjust="spacing" textLength="72.0005" x="95.0004" y="510.7344">&#36820;&#22238;&#25490;&#38431;&#36229;&#26102;</text><ellipse cx="131.0006" cy="563.0801" fill="none" filter="url(#falyd7uk1y48u)" rx="11" ry="11" style="stroke:#222222;stroke-width:1;"/><ellipse cx="131.0006" cy="563.0801" fill="#222222" rx="6" ry="6" style="stroke:#222222;stroke-width:1;"/><polygon fill="#FFF9C4" filter="url(#falyd7uk1y48u)" points="71.0002,440.6113,191.0011,440.6113,203.0011,452.6113,191.0011,464.6113,71.0002,464.6113,59.0002,452.6113,71.0002,440.6113" style="stroke:#F9A825;stroke-width:0.5;"/><text fill="#000000" font-family="'Microsoft YaHei,Arial,sans-serif'" font-size="12" lengthAdjust="spacing" textLength="24.0002" x="135.0006" y="475.75">&#36229;&#26102;</text><text fill="#5D4037" font-family="'Microsoft YaHei,Arial,sans-serif'" font-size="12" lengthAdjust="spacing" textLength="120.0009" x="71.0002" y="456.7656">&#26159;&#21542;&#33719;&#21462;&#21040;&#24182;&#21457;&#22353;&#20301;&#65311;</text><text fill="#000000" font-family="'Microsoft YaHei,Arial,sans-serif'" font-size="12" lengthAdjust="spacing" textLength="48.0004" x="203.0011" y="449.7813">&#33719;&#21462;&#25104;&#21151;</text><rect fill="#E3F2FD" filter="url(#falyd7uk1y48u)" height="47.9375" rx="12.5" ry="12.5" style="stroke:#1565C0;stroke-width:0.5;" width="144.0432" x="58.9791" y="616.0801"/><text fill="#0D47A1" font-family="'Microsoft YaHei,Arial,sans-serif'" font-size="12" lengthAdjust="spacing" textLength="109.4127" x="68.9791" y="637.2188">&#21021;&#22987;&#21270;&#20840;&#38142;&#36335; Trace</text><text fill="#0D47A1" font-family="'Microsoft YaHei,Arial,sans-serif'" font-size="12" lengthAdjust="spacing" textLength="124.0432" x="68.9791" y="651.1875">&#29983;&#25104; traceId + taskId</text><line style="stroke:#000000;stroke-width:1.5;" x1="20" x2="20" y1="16.3301" y2="1796.877"/><path d="M459.2465,696.584 L459.2465,703.9863 L439.2465,707.9863 L459.2465,711.9863 L459.2465,719.3887 A0,0 0 0 0 459.2465,719.3887 L563.9441,719.3887 A0,0 0 0 0 563.9441,719.3887 L563.9441,706.584 L553.9441,696.584 L459.2465,696.584 A0,0 0 0 0 459.2465,696.584" fill="#FFF9C4" filter="url(#falyd7uk1y48u)" style="stroke:#F9A825;stroke-width:0.5;"/><path d="M553.9441,696.584 L553.9441,706.584 L563.9441,706.584 L553.9441,696.584" fill="#FFF9C4" style="stroke:#F9A825;stroke-width:0.5;"/><text fill="#5D4037" font-family="'Microsoft YaHei,Arial,sans-serif'" font-size="11" lengthAdjust="spacing" textLength="83.6976" x="465.2465" y="711.7944">&#22635;&#20805; ctx.history</text><rect fill="#C8E6C9" filter="url(#falyd7uk1y48u)" height="47.9375" rx="12.5" ry="12.5" style="stroke:#1565C0;stroke-width:0.5;" width="139.45" x="299.7965" y="684.0176"/><text fill="#0D47A1" font-family="'Microsoft YaHei,Arial,sans-serif'" font-size="12" lengthAdjust="spacing" textLength="119.45" x="309.7965" y="705.1563">&#38454;&#27573; 1&#65306;&#21152;&#36733;&#20250;&#35805;&#35760;&#24518;</text><text fill="#0D47A1" font-family="'Microsoft YaHei,Arial,sans-serif'" font-size="12" lengthAdjust="spacing" textLength="102.2168" x="309.7965" y="719.125">loadMemory(ctx)</text><path d="M483.2467,764.5215 L483.2467,771.9238 L463.2467,775.9238 L483.2467,779.9238 L483.2467,787.3262 A0,0 0 0 0 483.2467,787.3262 L623.5385,787.3262 A0,0 0 0 0 623.5385,787.3262 L623.5385,774.5215 L613.5385,764.5215 L483.2467,764.5215 A0,0 0 0 0 483.2467,764.5215" fill="#FFF9C4" filter="url(#falyd7uk1y48u)" style="stroke:#F9A825;stroke-width:0.5;"/><path d="M613.5385,764.5215 L613.5385,774.5215 L623.5385,774.5215 L613.5385,764.5215" fill="#FFF9C4" style="stroke:#F9A825;stroke-width:0.5;"/><text fill="#5D4037" font-family="'Microsoft YaHei,Arial,sans-serif'" font-size="11" lengthAdjust="spacing" textLength="119.2918" x="489.2467" y="779.7319">&#22635;&#20805; ctx.rewriteResult</text><rect fill="#C8E6C9" filter="url(#falyd7uk1y48u)" height="47.9375" rx="12.5" ry="12.5" style="stroke:#1565C0;stroke-width:0.5;" width="187.4504" x="275.7963" y="751.9551"/><text fill="#0D47A1" font-family="'Microsoft YaHei,Arial,sans-serif'" font-size="12" lengthAdjust="spacing" textLength="167.4504" x="285.7963" y="773.0938">&#38454;&#27573; 2&#65306;&#26597;&#35810;&#25913;&#20889;&#19982;&#23376;&#38382;&#39064;&#25286;&#20998;</text><text fill="#0D47A1" font-family="'Microsoft YaHei,Arial,sans-serif'" font-size="12" lengthAdjust="spacing" textLength="106.7227" x="285.7963" y="787.0625">rewriteQuery(ctx)</text><path d="M456.167,832.459 L456.167,839.8613 L436.167,843.8613 L456.167,847.8613 L456.167,855.2637 A0,0 0 0 0 456.167,855.2637 L581.0277,855.2637 A0,0 0 0 0 581.0277,855.2637 L581.0277,842.459 L571.0277,832.459 L456.167,832.459 A0,0 0 0 0 456.167,832.459" fill="#FFF9C4" filter="url(#falyd7uk1y48u)" style="stroke:#F9A825;stroke-width:0.5;"/><path d="M571.0277,832.459 L571.0277,842.459 L581.0277,842.459 L571.0277,832.459" fill="#FFF9C4" style="stroke:#F9A825;stroke-width:0.5;"/><text fill="#5D4037" font-family="'Microsoft YaHei,Arial,sans-serif'" font-size="11" lengthAdjust="spacing" textLength="103.8607" x="462.167" y="847.6694">&#22635;&#20805; ctx.subIntents</text><rect fill="#C8E6C9" filter="url(#falyd7uk1y48u)" height="47.9375" rx="12.5" ry="12.5" style="stroke:#1565C0;stroke-width:0.5;" width="133.291" x="302.876" y="819.8926"/><text fill="#0D47A1" font-family="'Microsoft YaHei,Arial,sans-serif'" font-size="12" lengthAdjust="spacing" textLength="95.4499" x="312.876" y="841.0313">&#38454;&#27573; 3&#65306;&#24847;&#22270;&#35782;&#21035;</text><text fill="#0D47A1" font-family="'Microsoft YaHei,Arial,sans-serif'" font-size="12" lengthAdjust="spacing" textLength="113.291" x="312.876" y="855">resolveIntents(ctx)</text><rect fill="#FFF9C4" filter="url(#falyd7uk1y48u)" height="47.9375" rx="12.5" ry="12.5" style="stroke:#1565C0;stroke-width:0.5;" width="145.4609" x="296.791" y="887.8301"/><text fill="#0D47A1" font-family="'Microsoft YaHei,Arial,sans-serif'" font-size="12" lengthAdjust="spacing" textLength="95.4499" x="306.791" y="908.9688">&#38454;&#27573; 4&#65306;&#27495;&#20041;&#24341;&#23548;</text><text fill="#0D47A1" font-family="'Microsoft YaHei,Arial,sans-serif'" font-size="12" lengthAdjust="spacing" textLength="125.4609" x="306.791" y="922.9375">handleGuidance(ctx)</text><rect fill="#FFE0B2" filter="url(#falyd7uk1y48u)" height="47.9375" rx="12.5" ry="12.5" style="stroke:#1565C0;stroke-width:0.5;" width="140.0009" x="299.521" y="1004.752"/><text fill="#0D47A1" font-family="'Microsoft YaHei,Arial,sans-serif'" font-size="12" lengthAdjust="spacing" textLength="98.6314" x="309.521" y="1025.8906">SSE &#25512;&#36865;&#24341;&#23548;&#36873;&#39033;</text><text fill="#0D47A1" font-family="'Microsoft YaHei,Arial,sans-serif'" font-size="12" lengthAdjust="spacing" textLength="120.0009" x="309.521" y="1039.8594">&#31561;&#29992;&#25143;&#36873;&#25321;&#21518;&#37325;&#26032;&#36827;&#20837;</text><ellipse cx="369.5215" cy="1085.2207" fill="none" filter="url(#falyd7uk1y48u)" rx="11" ry="11" style="stroke:#222222;stroke-width:1;"/><ellipse cx="369.5215" cy="1085.2207" fill="#222222" rx="6" ry="6" style="stroke:#222222;stroke-width:1;"/><polygon fill="#FFF9C4" filter="url(#falyd7uk1y48u)" points="339.5213,955.7676,399.5217,955.7676,411.5217,967.7676,399.5217,979.7676,339.5213,979.7676,327.5213,967.7676,339.5213,955.7676" style="stroke:#F9A825;stroke-width:0.5;"/><text fill="#000000" font-family="'Microsoft YaHei,Arial,sans-serif'" font-size="12" lengthAdjust="spacing" textLength="12.0001" x="373.5215" y="990.9063">&#26159;</text><text fill="#5D4037" font-family="'Microsoft YaHei,Arial,sans-serif'" font-size="12" lengthAdjust="spacing" textLength="60.0005" x="339.5213" y="971.9219">&#23384;&#22312;&#27495;&#20041;&#65311;</text><text fill="#000000" font-family="'Microsoft YaHei,Arial,sans-serif'" font-size="12" lengthAdjust="spacing" textLength="12.0001" x="411.5217" y="964.9375">&#21542;</text><rect fill="#FFF9C4" filter="url(#falyd7uk1y48u)" height="47.9375" rx="12.5" ry="12.5" style="stroke:#1565C0;stroke-width:0.5;" width="160.9004" x="289.0713" y="1138.2207"/><text fill="#0D47A1" font-family="'Microsoft YaHei,Arial,sans-serif'" font-size="12" lengthAdjust="spacing" textLength="95.4499" x="299.0713" y="1159.3594">&#38454;&#27573; 5&#65306;&#31995;&#32479;&#30452;&#31572;</text><text fill="#0D47A1" font-family="'Microsoft YaHei,Arial,sans-serif'" font-size="12" lengthAdjust="spacing" textLength="140.9004" x="299.0713" y="1173.3281">handleSystemOnly(ctx)</text><rect fill="#FFE0B2" filter="url(#falyd7uk1y48u)" height="47.9375" rx="12.5" ry="12.5" style="stroke:#1565C0;stroke-width:0.5;" width="135.3542" x="301.8444" y="1255.1426"/><text fill="#0D47A1" font-family="'Microsoft YaHei,Arial,sans-serif'" font-size="12" lengthAdjust="spacing" textLength="48.0004" x="311.8444" y="1276.2813">&#36339;&#36807;&#26816;&#32034;</text><text fill="#0D47A1" font-family="'Microsoft YaHei,Arial,sans-serif'" font-size="12" lengthAdjust="spacing" textLength="115.3542" x="311.8444" y="1290.25">&#30452;&#25509;&#35843; LLM &#27969;&#24335;&#29983;&#25104;</text><ellipse cx="369.5215" cy="1335.6113" fill="none" filter="url(#falyd7uk1y48u)" rx="11" ry="11" style="stroke:#222222;stroke-width:1;"/><ellipse cx="369.5215" cy="1335.6113" fill="#222222" rx="6" ry="6" style="stroke:#222222;stroke-width:1;"/><polygon fill="#FFF9C4" filter="url(#falyd7uk1y48u)" points="305.7917,1206.1582,433.2513,1206.1582,445.2513,1218.1582,433.2513,1230.1582,305.7917,1230.1582,293.7917,1218.1582,305.7917,1206.1582" style="stroke:#F9A825;stroke-width:0.5;"/><text fill="#000000" font-family="'Microsoft YaHei,Arial,sans-serif'" font-size="12" lengthAdjust="spacing" textLength="12.0001" x="373.5215" y="1241.2969">&#26159;</text><text fill="#5D4037" font-family="'Microsoft YaHei,Arial,sans-serif'" font-size="12" lengthAdjust="spacing" textLength="127.4595" x="305.7917" y="1222.3125">&#20840;&#37096;&#26159; SYSTEM &#24847;&#22270;&#65311;</text><text fill="#000000" font-family="'Microsoft YaHei,Arial,sans-serif'" font-size="12" lengthAdjust="spacing" textLength="12.0001" x="445.2513" y="1215.3281">&#21542;</text><path d="M453.2465,1401.1777 L453.2465,1408.5801 L433.2465,1412.5801 L453.2465,1416.5801 L453.2465,1423.9824 A0,0 0 0 0 453.2465,1423.9824 L624.0134,1423.9824 A0,0 0 0 0 624.0134,1423.9824 L624.0134,1411.1777 L614.0134,1401.1777 L453.2465,1401.1777 A0,0 0 0 0 453.2465,1401.1777" fill="#FFF9C4" filter="url(#falyd7uk1y48u)" style="stroke:#F9A825;stroke-width:0.5;"/><path d="M614.0134,1401.1777 L614.0134,1411.1777 L624.0134,1411.1777 L614.0134,1401.1777" fill="#FFF9C4" style="stroke:#F9A825;stroke-width:0.5;"/><text fill="#5D4037" font-family="'Microsoft YaHei,Arial,sans-serif'" font-size="11" lengthAdjust="spacing" textLength="149.767" x="459.2465" y="1416.3882">KB &#24182;&#34892;&#26816;&#32034; + MCP &#24037;&#20855;&#35843;&#29992;</text><rect fill="#C8E6C9" filter="url(#falyd7uk1y48u)" height="47.9375" rx="12.5" ry="12.5" style="stroke:#1565C0;stroke-width:0.5;" width="127.45" x="305.7965" y="1388.6113"/><text fill="#0D47A1" font-family="'Microsoft YaHei,Arial,sans-serif'" font-size="12" lengthAdjust="spacing" textLength="107.45" x="315.7965" y="1409.75">&#38454;&#27573; 6&#65306;&#22810;&#36890;&#36947;&#26816;&#32034;</text><text fill="#0D47A1" font-family="'Microsoft YaHei,Arial,sans-serif'" font-size="12" lengthAdjust="spacing" textLength="74.9238" x="315.7965" y="1423.7188">retrieve(ctx)</text><rect fill="#FFF9C4" filter="url(#falyd7uk1y48u)" height="47.9375" rx="12.5" ry="12.5" style="stroke:#1565C0;stroke-width:0.5;" width="181.2266" x="278.9082" y="1456.5488"/><text fill="#0D47A1" font-family="'Microsoft YaHei,Arial,sans-serif'" font-size="12" lengthAdjust="spacing" textLength="107.45" x="288.9082" y="1477.6875">&#38454;&#27573; 7&#65306;&#31354;&#32467;&#26524;&#20828;&#24213;</text><text fill="#0D47A1" font-family="'Microsoft YaHei,Arial,sans-serif'" font-size="12" lengthAdjust="spacing" textLength="161.2266" x="288.9082" y="1491.6563">handleEmptyRetrieval(ctx)</text><rect fill="#FFE0B2" filter="url(#falyd7uk1y48u)" height="47.9375" rx="12.5" ry="12.5" style="stroke:#1565C0;stroke-width:0.5;" width="211.0404" x="264.0013" y="1573.4707"/><text fill="#0D47A1" font-family="'Microsoft YaHei,Arial,sans-serif'" font-size="12" lengthAdjust="spacing" textLength="50.631" x="274.0013" y="1594.6094">SSE &#25512;&#36865;</text><text fill="#0D47A1" font-family="'Microsoft YaHei,Arial,sans-serif'" font-size="12" lengthAdjust="spacing" textLength="191.0404" x="274.0013" y="1608.5781">"&#26410;&#26816;&#32034;&#21040;&#19982;&#38382;&#39064;&#30456;&#20851;&#30340;&#25991;&#26723;&#20869;&#23481;&#12290;"</text><ellipse cx="369.5215" cy="1653.9395" fill="none" filter="url(#falyd7uk1y48u)" rx="11" ry="11" style="stroke:#222222;stroke-width:1;"/><ellipse cx="369.5215" cy="1653.9395" fill="#222222" rx="6" ry="6" style="stroke:#222222;stroke-width:1;"/><polygon fill="#FFF9C4" filter="url(#falyd7uk1y48u)" points="327.5212,1524.4863,411.5218,1524.4863,423.5218,1536.4863,411.5218,1548.4863,327.5212,1548.4863,315.5212,1536.4863,327.5212,1524.4863" style="stroke:#F9A825;stroke-width:0.5;"/><text fill="#000000" font-family="'Microsoft YaHei,Arial,sans-serif'" font-size="12" lengthAdjust="spacing" textLength="12.0001" x="373.5215" y="1559.625">&#26159;</text><text fill="#5D4037" font-family="'Microsoft YaHei,Arial,sans-serif'" font-size="12" lengthAdjust="spacing" textLength="84.0006" x="327.5212" y="1540.6406">&#26816;&#32034;&#32467;&#26524;&#20026;&#31354;&#65311;</text><text fill="#000000" font-family="'Microsoft YaHei,Arial,sans-serif'" font-size="12" lengthAdjust="spacing" textLength="12.0001" x="423.5218" y="1533.6563">&#21542;</text><path d="M491.7573,1713.1035 L491.7573,1726.9082 L471.7573,1730.9082 L491.7573,1734.9082 L491.7573,1748.7129 A0,0 0 0 0 491.7573,1748.7129 L634.3639,1748.7129 A0,0 0 0 0 634.3639,1748.7129 L634.3639,1723.1035 L624.3639,1713.1035 L491.7573,1713.1035 A0,0 0 0 0 491.7573,1713.1035" fill="#FFF9C4" filter="url(#falyd7uk1y48u)" style="stroke:#F9A825;stroke-width:0.5;"/><path d="M624.3639,1713.1035 L624.3639,1723.1035 L634.3639,1723.1035 L624.3639,1713.1035" fill="#FFF9C4" style="stroke:#F9A825;stroke-width:0.5;"/><text fill="#5D4037" font-family="'Microsoft YaHei,Arial,sans-serif'" font-size="11" lengthAdjust="spacing" textLength="121.6066" x="497.7573" y="1728.314">&#19968;&#20010; Token &#19968;&#20010; Token</text><text fill="#5D4037" font-family="'Microsoft YaHei,Arial,sans-serif'" font-size="11" lengthAdjust="spacing" textLength="93.9077" x="497.7573" y="1741.1187">&#36890;&#36807; SSE &#25512;&#32473;&#21069;&#31471;</text><rect fill="#B3E5FC" filter="url(#falyd7uk1y48u)" height="47.9375" rx="12.5" ry="12.5" style="stroke:#1565C0;stroke-width:0.5;" width="204.4715" x="267.2857" y="1706.9395"/><text fill="#0D47A1" font-family="'Microsoft YaHei,Arial,sans-serif'" font-size="12" lengthAdjust="spacing" textLength="184.4715" x="277.2857" y="1728.0781">&#38454;&#27573; 8&#65306;Prompt &#32452;&#35013; + &#27969;&#24335;&#29983;&#25104;</text><text fill="#0D47A1" font-family="'Microsoft YaHei,Arial,sans-serif'" font-size="12" lengthAdjust="spacing" textLength="151.5645" x="277.2857" y="1742.0469">streamRagResponse(ctx)</text><ellipse cx="369.5215" cy="1785.877" fill="none" filter="url(#falyd7uk1y48u)" rx="11" ry="11" style="stroke:#222222;stroke-width:1;"/><ellipse cx="369.5215" cy="1785.877" fill="#222222" rx="6" ry="6" style="stroke:#222222;stroke-width:1;"/><line style="stroke:#000000;stroke-width:1.5;" x1="258.0013" x2="258.0013" y1="16.3301" y2="1796.877"/><line style="stroke:#000000;stroke-width:1.5;" x1="639.3639" x2="639.3639" y1="16.3301" y2="1796.877"/><line style="stroke:#181818;stroke-width:1;" x1="131.0006" x2="131.0006" y1="55.2988" y2="75.2988"/><polygon fill="#181818" points="127.0006,65.2988,131.0006,75.2988,135.0006,65.2988,131.0006,69.2988" style="stroke:#181818;stroke-width:1;"/><line style="stroke:#181818;stroke-width:1;" x1="131.0006" x2="131.0006" y1="109.2676" y2="129.2676"/><polygon fill="#181818" points="127.0006,119.2676,131.0006,129.2676,135.0006,119.2676,131.0006,123.2676" style="stroke:#181818;stroke-width:1;"/><line style="stroke:#181818;stroke-width:1;" x1="131.0006" x2="131.0006" y1="280.1582" y2="308.6738"/><polygon fill="#181818" points="127.0006,298.6738,131.0006,308.6738,135.0006,298.6738,131.0006,302.6738" style="stroke:#181818;stroke-width:1;"/><line style="stroke:#181818;stroke-width:1;" x1="131.0006" x2="131.0006" y1="221.2051" y2="246.1895"/><polygon fill="#181818" points="127.0006,236.1895,131.0006,246.1895,135.0006,236.1895,131.0006,240.1895" style="stroke:#181818;stroke-width:1;"/><line style="stroke:#181818;stroke-width:1;" x1="227.0013" x2="239.0013" y1="209.2051" y2="209.2051"/><polygon fill="#181818" points="235.0013,278.6738,239.0013,288.6738,243.0013,278.6738,239.0013,282.6738" style="stroke:#181818;stroke-width:1;"/><line style="stroke:#181818;stroke-width:1;" x1="239.0013" x2="239.0013" y1="209.2051" y2="352.6738"/><line style="stroke:#181818;stroke-width:1;" x1="239.0013" x2="131.0006" y1="352.6738" y2="352.6738"/><line style="stroke:#181818;stroke-width:1;" x1="131.0006" x2="131.0006" y1="352.6738" y2="372.6738"/><polygon fill="#181818" points="127.0006,362.6738,131.0006,372.6738,135.0006,362.6738,131.0006,366.6738" style="stroke:#181818;stroke-width:1;"/><line style="stroke:#181818;stroke-width:1;" x1="131.0006" x2="131.0006" y1="177.2051" y2="197.2051"/><polygon fill="#181818" points="127.0006,187.2051,131.0006,197.2051,135.0006,187.2051,131.0006,191.2051" style="stroke:#181818;stroke-width:1;"/><line style="stroke:#181818;stroke-width:1;" x1="131.0006" x2="131.0006" y1="523.5645" y2="552.0801"/><polygon fill="#181818" points="127.0006,542.0801,131.0006,552.0801,135.0006,542.0801,131.0006,546.0801" style="stroke:#181818;stroke-width:1;"/><line style="stroke:#181818;stroke-width:1;" x1="131.0006" x2="131.0006" y1="464.6113" y2="489.5957"/><polygon fill="#181818" points="127.0006,479.5957,131.0006,489.5957,135.0006,479.5957,131.0006,483.5957" style="stroke:#181818;stroke-width:1;"/><line style="stroke:#181818;stroke-width:1;" x1="203.0011" x2="215.0011" y1="452.6113" y2="452.6113"/><polygon fill="#181818" points="211.0011,522.0801,215.0011,532.0801,219.0011,522.0801,215.0011,526.0801" style="stroke:#181818;stroke-width:1;"/><line style="stroke:#181818;stroke-width:1;" x1="215.0011" x2="215.0011" y1="452.6113" y2="596.0801"/><line style="stroke:#181818;stroke-width:1;" x1="215.0011" x2="131.0006" y1="596.0801" y2="596.0801"/><line style="stroke:#181818;stroke-width:1;" x1="131.0006" x2="131.0006" y1="596.0801" y2="616.0801"/><polygon fill="#181818" points="127.0006,606.0801,131.0006,616.0801,135.0006,606.0801,131.0006,610.0801" style="stroke:#181818;stroke-width:1;"/><line style="stroke:#181818;stroke-width:1;" x1="131.0006" x2="131.0006" y1="420.6113" y2="440.6113"/><polygon fill="#181818" points="127.0006,430.6113,131.0006,440.6113,135.0006,430.6113,131.0006,434.6113" style="stroke:#181818;stroke-width:1;"/><line style="stroke:#181818;stroke-width:1;" x1="369.5215" x2="369.5215" y1="731.9551" y2="751.9551"/><polygon fill="#181818" points="365.5215,741.9551,369.5215,751.9551,373.5215,741.9551,369.5215,745.9551" style="stroke:#181818;stroke-width:1;"/><line style="stroke:#181818;stroke-width:1;" x1="369.5215" x2="369.5215" y1="799.8926" y2="819.8926"/><polygon fill="#181818" points="365.5215,809.8926,369.5215,819.8926,373.5215,809.8926,369.5215,813.8926" style="stroke:#181818;stroke-width:1;"/><line style="stroke:#181818;stroke-width:1;" x1="369.5215" x2="369.5215" y1="867.8301" y2="887.8301"/><polygon fill="#181818" points="365.5215,877.8301,369.5215,887.8301,373.5215,877.8301,369.5215,881.8301" style="stroke:#181818;stroke-width:1;"/><line style="stroke:#181818;stroke-width:1;" x1="369.5215" x2="369.5215" y1="1052.6895" y2="1074.2207"/><polygon fill="#181818" points="365.5215,1064.2207,369.5215,1074.2207,373.5215,1064.2207,369.5215,1068.2207" style="stroke:#181818;stroke-width:1;"/><line style="stroke:#181818;stroke-width:1;" x1="369.5215" x2="369.5215" y1="979.7676" y2="1004.752"/><polygon fill="#181818" points="365.5215,994.752,369.5215,1004.752,373.5215,994.752,369.5215,998.752" style="stroke:#181818;stroke-width:1;"/><line style="stroke:#181818;stroke-width:1;" x1="411.5217" x2="449.522" y1="967.7676" y2="967.7676"/><polygon fill="#181818" points="445.522,1044.2207,449.522,1054.2207,453.522,1044.2207,449.522,1048.2207" style="stroke:#181818;stroke-width:1;"/><line style="stroke:#181818;stroke-width:1;" x1="449.522" x2="449.522" y1="967.7676" y2="1118.2207"/><line style="stroke:#181818;stroke-width:1;" x1="449.522" x2="369.5215" y1="1118.2207" y2="1118.2207"/><line style="stroke:#181818;stroke-width:1;" x1="369.5215" x2="369.5215" y1="1118.2207" y2="1138.2207"/><polygon fill="#181818" points="365.5215,1128.2207,369.5215,1138.2207,373.5215,1128.2207,369.5215,1132.2207" style="stroke:#181818;stroke-width:1;"/><line style="stroke:#181818;stroke-width:1;" x1="369.5215" x2="369.5215" y1="935.7676" y2="955.7676"/><polygon fill="#181818" points="365.5215,945.7676,369.5215,955.7676,373.5215,945.7676,369.5215,949.7676" style="stroke:#181818;stroke-width:1;"/><line style="stroke:#181818;stroke-width:1;" x1="369.5215" x2="369.5215" y1="1303.0801" y2="1324.6113"/><polygon fill="#181818" points="365.5215,1314.6113,369.5215,1324.6113,373.5215,1314.6113,369.5215,1318.6113" style="stroke:#181818;stroke-width:1;"/><line style="stroke:#181818;stroke-width:1;" x1="369.5215" x2="369.5215" y1="1230.1582" y2="1255.1426"/><polygon fill="#181818" points="365.5215,1245.1426,369.5215,1255.1426,373.5215,1245.1426,369.5215,1249.1426" style="stroke:#181818;stroke-width:1;"/><line style="stroke:#181818;stroke-width:1;" x1="445.2513" x2="457.2513" y1="1218.1582" y2="1218.1582"/><polygon fill="#181818" points="453.2513,1294.6113,457.2513,1304.6113,461.2513,1294.6113,457.2513,1298.6113" style="stroke:#181818;stroke-width:1;"/><line style="stroke:#181818;stroke-width:1;" x1="457.2513" x2="457.2513" y1="1218.1582" y2="1368.6113"/><line style="stroke:#181818;stroke-width:1;" x1="457.2513" x2="369.5215" y1="1368.6113" y2="1368.6113"/><line style="stroke:#181818;stroke-width:1;" x1="369.5215" x2="369.5215" y1="1368.6113" y2="1388.6113"/><polygon fill="#181818" points="365.5215,1378.6113,369.5215,1388.6113,373.5215,1378.6113,369.5215,1382.6113" style="stroke:#181818;stroke-width:1;"/><line style="stroke:#181818;stroke-width:1;" x1="369.5215" x2="369.5215" y1="1186.1582" y2="1206.1582"/><polygon fill="#181818" points="365.5215,1196.1582,369.5215,1206.1582,373.5215,1196.1582,369.5215,1200.1582" style="stroke:#181818;stroke-width:1;"/><line style="stroke:#181818;stroke-width:1;" x1="369.5215" x2="369.5215" y1="1436.5488" y2="1456.5488"/><polygon fill="#181818" points="365.5215,1446.5488,369.5215,1456.5488,373.5215,1446.5488,369.5215,1450.5488" style="stroke:#181818;stroke-width:1;"/><line style="stroke:#181818;stroke-width:1;" x1="369.5215" x2="369.5215" y1="1621.4082" y2="1642.9395"/><polygon fill="#181818" points="365.5215,1632.9395,369.5215,1642.9395,373.5215,1632.9395,369.5215,1636.9395" style="stroke:#181818;stroke-width:1;"/><line style="stroke:#181818;stroke-width:1;" x1="369.5215" x2="369.5215" y1="1548.4863" y2="1573.4707"/><polygon fill="#181818" points="365.5215,1563.4707,369.5215,1573.4707,373.5215,1563.4707,369.5215,1567.4707" style="stroke:#181818;stroke-width:1;"/><line style="stroke:#181818;stroke-width:1;" x1="423.5218" x2="485.0417" y1="1536.4863" y2="1536.4863"/><polygon fill="#181818" points="481.0417,1612.9395,485.0417,1622.9395,489.0417,1612.9395,485.0417,1616.9395" style="stroke:#181818;stroke-width:1;"/><line style="stroke:#181818;stroke-width:1;" x1="485.0417" x2="485.0417" y1="1536.4863" y2="1686.9395"/><line style="stroke:#181818;stroke-width:1;" x1="485.0417" x2="369.5215" y1="1686.9395" y2="1686.9395"/><line style="stroke:#181818;stroke-width:1;" x1="369.5215" x2="369.5215" y1="1686.9395" y2="1706.9395"/><polygon fill="#181818" points="365.5215,1696.9395,369.5215,1706.9395,373.5215,1696.9395,369.5215,1700.9395" style="stroke:#181818;stroke-width:1;"/><line style="stroke:#181818;stroke-width:1;" x1="369.5215" x2="369.5215" y1="1504.4863" y2="1524.4863"/><polygon fill="#181818" points="365.5215,1514.4863,369.5215,1524.4863,373.5215,1514.4863,369.5215,1518.4863" style="stroke:#181818;stroke-width:1;"/><line style="stroke:#181818;stroke-width:1;" x1="369.5215" x2="369.5215" y1="1754.877" y2="1774.877"/><polygon fill="#181818" points="365.5215,1764.877,369.5215,1774.877,373.5215,1764.877,369.5215,1768.877" style="stroke:#181818;stroke-width:1;"/><line style="stroke:#181818;stroke-width:1;" x1="131.0006" x2="131.0006" y1="664.0176" y2="669.0176"/><line style="stroke:#181818;stroke-width:1;" x1="131.0006" x2="369.5215" y1="669.0176" y2="669.0176"/><line style="stroke:#181818;stroke-width:1;" x1="369.5215" x2="369.5215" y1="669.0176" y2="684.0176"/><polygon fill="#181818" points="365.5215,674.0176,369.5215,684.0176,373.5215,674.0176,369.5215,678.0176" style="stroke:#181818;stroke-width:1;"/><text fill="#000000" font-family="'Microsoft YaHei,Arial,sans-serif'" font-size="12" lengthAdjust="spacing" textLength="63.0411" x="107.4801" y="27.4688">Pipeline &#21069;</text><text fill="#000000" font-family="'Microsoft YaHei,Arial,sans-serif'" font-size="12" lengthAdjust="spacing" textLength="63.0411" x="417.162" y="27.4688">Pipeline &#20869;</text><?plantuml-src bLLRKrfN57xdL-oXBpfDwnMlcKoLI-9KMokyP8QN8sShPuHzc7CEfhHs1eqeH0LIZJSqr6kC3c978w0OVqpP-noUyXUwu634H6lbxUozrlTzwrjhRUGHWVWuYVEYGSurCYo9ViARHOyeeMziNRPkczaWVuwGtHmllX38C58aFwwwuF4Gv_SeDf4eFt5UZ8nzWaiIPN58GS-vPrXur2K9dEUHp17vEnbBmf3nzcIxy1j63Os6gblEfGYZWX90lniG_Bg_56bjiZNQBFgTAF5Ogfmtc5fCvlhoUGcvSbflQMxjQYYVMWJEAnB-Aq2RpTPkRhuHKerhQ-zgQpHLNrV1copDzKsjXZ-g2o2YWkyINyLr5ydNw5UdkbaD9RQnVi67FGB1Y4RcnWoomacAeUEPmz6FdbeTg4xYXkj6c-fSRaxfD1WwQ6v2JKLOB5uussOpkooyxoG_zF3OwmEj0EmVz0eGA0oX6XgVBMI3wi8U2sVOSfh6TzbQH4jdsDyJBBL5r_RezgGQd_gKJzOYnOq9ge6eshB63kroWIRU6kd5FAWgv5UrzBeUNSYcZ9teyMEetsonD3vvKewN5T5dm1uPbrXtQmsOyC8Gg2qk9sbuYUPZD7TAOw-BAt7sOTn9p53CBtxinxq2gCMIhbVNg4KpDBP8mqTw2br_NRYOgzAedOROqkaDcIpw9n3f5_-fJSTcuJXzbRmMISFhzDqCdLsaeRtY_4SjaqOEYNDX9r4NaX0C6mDVFJpw5YcSFDB3TzxesbHeh5JeAJlyW1e-vLVfgx-qYmlTC-tmY5vEEOb7vFW-x1MbG8rB-RMsBDBSPcqnjuF8yfH9mh1RwK1quu26GWY2ldSBe5mA63w3Dm8uI-vewKssaADJAuLibARYnQN3ukOocvcYOI2Iy0i970Lp7q9LoHh0CYppDM5JYN0oHXCVjJJ07vJWPT4pYdj8QTRa_qyW-mShETVepINqrBj2BaBpRsWwxoHkZl0U_DGly1nnuMjqVTK0lJpLgMKONJtnrj6rsws8HVUAmN4TjnYC53ToqCnKHDy5E60pxsayMfoUOuj7scM2XdOgHDRwxljdkYpV1FBLutFrFAacJjJKmfLyUq1MiFTduWdSLG1CsSizq8lip-qEQn_IBRvz3JF7skKqsmgg9vjGGUA4HNUqevUejnVIFa21CNr47wo-fJIeswl5u6fnVFuANyAA9E1HV4zVV-n6i9lQngoU1slHP-v7DBD3GnaG1oPVyxIMN7f_ffxFixThDBH6pzvS6MNr-fJ0W4x9UUumIwVGqmlPCu2wf-TEOcHh-teQF2Am8_g2g8ai3HshgvDiSPfjRC7MqiFSFy49uuEjQuEI-YKHr2FrV5BR2e41rRrm4bcHCESTu8PXeNmYaQiCxMwoccpcBmo5LxgGtKSESGIgglvm4cWG302grAUUhy1ph1wauKyAHFuB?></g></svg>