<svg xmlns="http://www.w3.org/2000/svg" xmlns:xlink="http://www.w3.org/1999/xlink" contentStyleType="text/css" data-diagram-type="ACTIVITY" height="978px" preserveAspectRatio="none" style="width:604px;height:978px;background:#FAFBFC;" version="1.1" viewBox="0 0 604 978" width="604px" zoomAndPan="magnify"><?plantuml 1.2026.3beta6?><defs><filter height="300%" id="fz5uoag64b69t" width="300%" x="-1" y="-1"><feGaussianBlur result="blurOut" stdDeviation="2"/><feColorMatrix in="blurOut" result="blurOut2" type="matrix" values="0 0 0 0 0 0 0 0 0 0 0 0 0 0 0 0 0 0 .4 0"/><feOffset dx="4" dy="4" in="blurOut2" result="blurOut3"/><feBlend in="SourceGraphic" in2="blurOut3" mode="normal"/></filter></defs><g><rect fill="#FAFBFC" height="978" style="stroke:none;stroke-width:1;" width="604" x="0" y="0"/><g class="title" data-source-line="41"><text fill="#000000" font-family="'Microsoft YaHei,Arial,sans-serif'" font-size="14" font-weight="700" lengthAdjust="spacing" textLength="213.1031" x="194.452" y="32.9951">capTotalIntents &#23553;&#39030;&#31639;&#27861;&#27969;&#31243;</text></g><ellipse cx="255.5248" cy="62.2969" fill="#2E7D32" filter="url(#fz5uoag64b69t)" rx="10" ry="10" style="stroke:#222222;stroke-width:1;"/><path d="M357.5254,97.8789 L357.5254,105.2813 L337.5254,109.2813 L357.5254,113.2813 L357.5254,120.6836 A0,0 0 0 0 357.5254,120.6836 L577.7278,120.6836 A0,0 0 0 0 577.7278,120.6836 L577.7278,107.8789 L567.7278,97.8789 L357.5254,97.8789 A0,0 0 0 0 357.5254,97.8789" fill="#FFF9C4" filter="url(#fz5uoag64b69t)" style="stroke:#F9A825;stroke-width:0.5;"/><path d="M567.7278,97.8789 L567.7278,107.8789 L577.7278,107.8789 L567.7278,97.8789" fill="#FFF9C4" style="stroke:#F9A825;stroke-width:0.5;"/><text fill="#5D4037" font-family="'Microsoft YaHei,Arial,sans-serif'" font-size="11" font-weight="700" lengthAdjust="spacing" textLength="73.5464" x="363.5254" y="113.0894">totalIntents</text><text fill="#5D4037" font-family="'Microsoft YaHei,Arial,sans-serif'" font-size="11" lengthAdjust="spacing" textLength="122.1595" x="440.5683" y="113.0894">= &#931; &#27599;&#20010;&#23376;&#38382;&#39064;&#30340;&#24847;&#22270;&#25968;</text><rect fill="#E3F2FD" filter="url(#fz5uoag64b69t)" height="33.9688" rx="5" ry="5" style="stroke:#1565C0;stroke-width:1;" width="164.0011" x="173.5243" y="92.2969"/><text fill="#0D47A1" font-family="'Microsoft YaHei,Arial,sans-serif'" font-size="12" lengthAdjust="spacing" textLength="144.0011" x="183.5243" y="113.4355">&#32479;&#35745;&#25152;&#26377;&#23376;&#38382;&#39064;&#30340;&#24847;&#22270;&#24635;&#25968;</text><path d="M339.5252,195.25 L339.5252,209.0547 L319.5252,213.0547 L339.5252,217.0547 L339.5252,230.8594 A0,0 0 0 0 339.5252,230.8594 L459.5245,230.8594 A0,0 0 0 0 459.5245,230.8594 L459.5245,205.25 L449.5245,195.25 L339.5252,195.25 A0,0 0 0 0 339.5252,195.25" fill="#FFF9C4" filter="url(#fz5uoag64b69t)" style="stroke:#F9A825;stroke-width:0.5;"/><path d="M449.5245,195.25 L449.5245,205.25 L459.5245,205.25 L449.5245,195.25" fill="#FFF9C4" style="stroke:#F9A825;stroke-width:0.5;"/><text fill="#5D4037" font-family="'Microsoft YaHei,Arial,sans-serif'" font-size="11" font-weight="700" lengthAdjust="spacing" textLength="43.9997" x="345.5252" y="210.4604">&#24555;&#36895;&#36335;&#24452;</text><text fill="#5D4037" font-family="'Microsoft YaHei,Arial,sans-serif'" font-size="11" lengthAdjust="spacing" textLength="98.9993" x="345.5252" y="223.2651">&#22823;&#37096;&#20998;&#22330;&#26223;&#36208;&#36825;&#26465;&#36335;</text><rect fill="#E3F2FD" filter="url(#fz5uoag64b69t)" height="33.9688" rx="5" ry="5" style="stroke:#1565C0;stroke-width:1;" width="128.0008" x="191.5244" y="196.0703"/><text fill="#0D47A1" font-family="'Microsoft YaHei,Arial,sans-serif'" font-size="12" lengthAdjust="spacing" textLength="108.0008" x="201.5244" y="217.209">&#30452;&#25509;&#36820;&#22238;&#65292;&#19981;&#20570;&#23553;&#39030;</text><ellipse cx="255.5248" cy="269.5547" fill="none" filter="url(#fz5uoag64b69t)" rx="11" ry="11" style="stroke:#222222;stroke-width:1;"/><ellipse cx="255.5248" cy="269.5547" fill="#222222" rx="6" ry="6" style="stroke:#222222;stroke-width:1;"/><polygon fill="#FFF9C4" filter="url(#fz5uoag64b69t)" points="198.1293,146.2656,312.9203,146.2656,324.9203,158.2656,312.9203,170.2656,198.1293,170.2656,186.1293,158.2656,198.1293,146.2656" style="stroke:#F9A825;stroke-width:1;"/><text fill="#000000" font-family="'Microsoft YaHei,Arial,sans-serif'" font-size="12" lengthAdjust="spacing" textLength="12.0001" x="259.5248" y="181.4043">&#26159;</text><text fill="#5D4037" font-family="'Microsoft YaHei,Arial,sans-serif'" font-size="12" lengthAdjust="spacing" textLength="114.791" x="198.1293" y="162.4199">totalIntents &lt;= 3 ?</text><text fill="#000000" font-family="'Microsoft YaHei,Arial,sans-serif'" font-size="12" lengthAdjust="spacing" textLength="12.0001" x="324.9203" y="155.4355">&#21542;</text><rect fill="#F5F5F5" filter="url(#fz5uoag64b69t)" height="107.875" rx="5" ry="5" style="stroke:#90CAF9;stroke-width:1.5;" width="390.7391" x="151.5242" y="312.5547"/><path d="M271.7395,312.5547 L271.7395,319.5234 L261.7395,329.5234 L151.5242,329.5234" fill="none" style="stroke:#90CAF9;stroke-width:1.5;"/><text fill="#1565C0" font-family="'Microsoft YaHei,Arial,sans-serif'" font-size="12" lengthAdjust="spacing" textLength="110.2153" x="154.5242" y="324.6934">Step 1 &#183; &#25153;&#24179;&#21270;&#25910;&#38598;</text><path d="M369.5255,359.6719 L369.5255,373.4766 L349.5255,377.4766 L369.5255,381.4766 L369.5255,395.2813 A0,0 0 0 0 369.5255,395.2813 L532.2633,395.2813 A0,0 0 0 0 532.2633,395.2813 L532.2633,369.6719 L522.2633,359.6719 L369.5255,359.6719 A0,0 0 0 0 369.5255,359.6719" fill="#FFF9C4" filter="url(#fz5uoag64b69t)" style="stroke:#F9A825;stroke-width:0.5;"/><path d="M522.2633,359.6719 L522.2633,369.6719 L532.2633,369.6719 L522.2633,359.6719" fill="#FFF9C4" style="stroke:#F9A825;stroke-width:0.5;"/><text fill="#5D4037" font-family="'Microsoft YaHei,Arial,sans-serif'" font-size="11" lengthAdjust="spacing" textLength="109.4944" x="375.5255" y="374.8823">&#20363;&#65306;8 &#20010;&#24847;&#22270;&#25153;&#24179;&#21270;&#20026;</text><text fill="#5D4037" font-family="'Microsoft YaHei,Arial,sans-serif'" font-size="11" font-weight="700" lengthAdjust="spacing" textLength="141.7378" x="375.5255" y="387.687">List&lt;IntentCandidate&gt;</text><rect fill="#E3F2FD" filter="url(#fz5uoag64b69t)" height="61.9063" rx="5" ry="5" style="stroke:#1565C0;stroke-width:1;" width="188.0013" x="161.5242" y="346.5234"/><text fill="#0D47A1" font-family="'Microsoft YaHei,Arial,sans-serif'" font-size="12" lengthAdjust="spacing" textLength="121.7695" x="171.5242" y="367.6621">collectAllCandidates</text><text fill="#0D47A1" font-family="'Microsoft YaHei,Arial,sans-serif'" font-size="12" lengthAdjust="spacing" textLength="168.0013" x="171.5242" y="381.6309">&#25910;&#38598;&#25152;&#26377;&#24847;&#22270;&#65292;&#26631;&#35760;&#23376;&#38382;&#39064;&#24402;&#23646;</text><text fill="#0D47A1" font-family="'Microsoft YaHei,Arial,sans-serif'" font-size="12" lengthAdjust="spacing" textLength="84.0006" x="171.5242" y="395.5996">&#25353;&#20998;&#25968;&#38477;&#24207;&#25490;&#24207;</text><rect fill="#F5F5F5" filter="url(#fz5uoag64b69t)" height="93.9063" rx="5" ry="5" style="stroke:#90CAF9;stroke-width:1.5;" width="387.1891" x="140.7494" y="430.4297"/><path d="M260.9647,430.4297 L260.9647,437.3984 L250.9647,447.3984 L140.7494,447.3984" fill="none" style="stroke:#90CAF9;stroke-width:1.5;"/><text fill="#1565C0" font-family="'Microsoft YaHei,Arial,sans-serif'" font-size="12" lengthAdjust="spacing" textLength="110.2153" x="143.7494" y="442.5684">Step 2 &#183; &#22810;&#26679;&#24615;&#20445;&#35777;</text><path d="M380.3002,470.5625 L380.3002,484.3672 L360.3002,488.3672 L380.3002,492.3672 L380.3002,506.1719 A0,0 0 0 0 380.3002,506.1719 L517.9385,506.1719 A0,0 0 0 0 517.9385,506.1719 L517.9385,480.5625 L507.9385,470.5625 L380.3002,470.5625 A0,0 0 0 0 380.3002,470.5625" fill="#FFF9C4" filter="url(#fz5uoag64b69t)" style="stroke:#F9A825;stroke-width:0.5;"/><path d="M507.9385,470.5625 L507.9385,480.5625 L517.9385,480.5625 L507.9385,470.5625" fill="#FFF9C4" style="stroke:#F9A825;stroke-width:0.5;"/><text fill="#5D4037" font-family="'Microsoft YaHei,Arial,sans-serif'" font-size="11" font-weight="700" lengthAdjust="spacing" textLength="54.9996" x="386.3002" y="485.7729">&#22810;&#26679;&#24615;&#20445;&#35777;</text><text fill="#5D4037" font-family="'Microsoft YaHei,Arial,sans-serif'" font-size="11" lengthAdjust="spacing" textLength="116.6383" x="386.3002" y="498.5776">A / B / C &#21508;&#21344; 1 &#20010;&#21517;&#39069;</text><rect fill="#E3F2FD" filter="url(#fz5uoag64b69t)" height="47.9375" rx="5" ry="5" style="stroke:#1565C0;stroke-width:1;" width="209.5508" x="150.7494" y="464.3984"/><text fill="#0D47A1" font-family="'Microsoft YaHei,Arial,sans-serif'" font-size="12" lengthAdjust="spacing" textLength="189.5508" x="160.7494" y="485.5371">selectTopIntentPerSubQuestion</text><text fill="#0D47A1" font-family="'Microsoft YaHei,Arial,sans-serif'" font-size="12" lengthAdjust="spacing" textLength="144.0011" x="160.7494" y="499.5059">&#27599;&#20010;&#23376;&#38382;&#39064;&#20445;&#30041;&#26368;&#39640;&#20998;&#24847;&#22270;</text><rect fill="#F5F5F5" filter="url(#fz5uoag64b69t)" height="93.9063" rx="5" ry="5" style="stroke:#90CAF9;stroke-width:1.5;" width="186.1332" x="162.4582" y="534.3359"/><path d="M270.6734,534.3359 L270.6734,541.3047 L260.6734,551.3047 L162.4582,551.3047" fill="none" style="stroke:#90CAF9;stroke-width:1.5;"/><text fill="#1565C0" font-family="'Microsoft YaHei,Arial,sans-serif'" font-size="12" lengthAdjust="spacing" textLength="98.2152" x="165.4582" y="546.4746">Step 3 &#183; &#37197;&#39069;&#35745;&#31639;</text><rect fill="#E3F2FD" filter="url(#fz5uoag64b69t)" height="47.9375" rx="5" ry="5" style="stroke:#1565C0;stroke-width:1;" width="166.1332" x="172.4582" y="568.3047"/><text fill="#0D47A1" font-family="'Microsoft YaHei,Arial,sans-serif'" font-size="12" lengthAdjust="spacing" textLength="72.0005" x="182.4582" y="589.4434">&#35745;&#31639;&#21097;&#20313;&#37197;&#39069;</text><text fill="#0D47A1" font-family="'Microsoft YaHei,Arial,sans-serif'" font-size="12" lengthAdjust="spacing" textLength="146.1332" x="182.4582" y="603.4121">remaining = 3 - &#24050;&#20445;&#35777;&#25968;</text><polygon fill="#FFF9C4" filter="url(#fz5uoag64b69t)" points="207.3461,648.2422,303.7035,648.2422,315.7035,660.2422,303.7035,672.2422,207.3461,672.2422,195.3461,660.2422,207.3461,648.2422" style="stroke:#F9A825;stroke-width:1;"/><text fill="#5D4037" font-family="'Microsoft YaHei,Arial,sans-serif'" font-size="12" lengthAdjust="spacing" textLength="96.3574" x="207.3461" y="664.3965">remaining &gt; 0 ?</text><text fill="#000000" font-family="'Microsoft YaHei,Arial,sans-serif'" font-size="12" lengthAdjust="spacing" textLength="12.0001" x="183.346" y="657.4121">&#26159;</text><text fill="#000000" font-family="'Microsoft YaHei,Arial,sans-serif'" font-size="12" lengthAdjust="spacing" textLength="12.0001" x="315.7035" y="657.4121">&#21542;</text><rect fill="#F5F5F5" filter="url(#fz5uoag64b69t)" height="93.9063" rx="5" ry="5" style="stroke:#90CAF9;stroke-width:1.5;" width="312.0991" x="16" y="682.2422"/><path d="M124.2152,682.2422 L124.2152,689.2109 L114.2152,699.2109 L16,699.2109" fill="none" style="stroke:#90CAF9;stroke-width:1.5;"/><text fill="#1565C0" font-family="'Microsoft YaHei,Arial,sans-serif'" font-size="12" lengthAdjust="spacing" textLength="98.2152" x="19" y="694.3809">Step 4 &#183; &#20840;&#23616;&#34917;&#20301;</text><path d="M203.9004,722.375 L203.9004,736.1797 L183.9004,740.1797 L203.9004,744.1797 L203.9004,757.9844 A0,0 0 0 0 203.9004,757.9844 L318.0991,757.9844 A0,0 0 0 0 318.0991,757.9844 L318.0991,732.375 L308.0991,722.375 L203.9004,722.375 A0,0 0 0 0 203.9004,722.375" fill="#FFF9C4" filter="url(#fz5uoag64b69t)" style="stroke:#F9A825;stroke-width:0.5;"/><path d="M308.0991,722.375 L308.0991,732.375 L318.0991,732.375 L308.0991,722.375" fill="#FFF9C4" style="stroke:#F9A825;stroke-width:0.5;"/><text fill="#5D4037" font-family="'Microsoft YaHei,Arial,sans-serif'" font-size="11" lengthAdjust="spacing" textLength="54.9996" x="209.9004" y="737.5854">&#36339;&#36807;&#24050;&#36873;&#30340;</text><text fill="#5D4037" font-family="'Microsoft YaHei,Arial,sans-serif'" font-size="11" lengthAdjust="spacing" textLength="65.9995" x="209.9004" y="750.3901">&#21462;&#20998;&#25968;&#26368;&#39640;&#30340;</text><text fill="#5D4037" font-family="'Microsoft YaHei,Arial,sans-serif'" font-size="11" font-weight="700" lengthAdjust="spacing" textLength="9.2061" x="279.3965" y="750.3901">N</text><text fill="#5D4037" font-family="'Microsoft YaHei,Arial,sans-serif'" font-size="11" lengthAdjust="spacing" textLength="10.9999" x="292.0992" y="750.3901">&#20010;</text><rect fill="#E3F2FD" filter="url(#fz5uoag64b69t)" height="47.9375" rx="5" ry="5" style="stroke:#1565C0;stroke-width:1;" width="157.9004" x="26" y="716.2109"/><text fill="#0D47A1" font-family="'Microsoft YaHei,Arial,sans-serif'" font-size="12" lengthAdjust="spacing" textLength="137.9004" x="36" y="737.3496">selectAdditionalIntents</text><text fill="#0D47A1" font-family="'Microsoft YaHei,Arial,sans-serif'" font-size="12" lengthAdjust="spacing" textLength="132.001" x="36" y="751.3184">&#21097;&#20313;&#37197;&#39069;&#25353;&#20840;&#23616;&#20998;&#25968;&#20998;&#37197;</text><rect fill="#E3F2FD" filter="url(#fz5uoag64b69t)" height="33.9688" rx="5" ry="5" style="stroke:#1565C0;stroke-width:1;" width="116.0007" x="348.0991" y="682.2422"/><text fill="#0D47A1" font-family="'Microsoft YaHei,Arial,sans-serif'" font-size="12" lengthAdjust="spacing" textLength="96.0007" x="358.0991" y="703.3809">&#26080;&#21097;&#20313;&#37197;&#39069;&#65292;&#36339;&#36807;</text><polygon fill="#FFF9C4" filter="url(#fz5uoag64b69t)" points="255.5248,782.1484,267.5248,794.1484,255.5248,806.1484,243.5248,794.1484,255.5248,782.1484" style="stroke:#F9A825;stroke-width:1;"/><rect fill="#F5F5F5" filter="url(#fz5uoag64b69t)" height="93.9063" rx="5" ry="5" style="stroke:#90CAF9;stroke-width:1.5;" width="420.483" x="157.5242" y="816.1484"/><path d="M265.7394,816.1484 L265.7394,823.1172 L255.7394,833.1172 L157.5242,833.1172" fill="none" style="stroke:#90CAF9;stroke-width:1.5;"/><text fill="#1565C0" font-family="'Microsoft YaHei,Arial,sans-serif'" font-size="12" lengthAdjust="spacing" textLength="98.2152" x="160.5242" y="828.2871">Step 5 &#183; &#32467;&#26524;&#37325;&#24314;</text><path d="M363.5254,856.2813 L363.5254,870.0859 L343.5254,874.0859 L363.5254,878.0859 L363.5254,891.8906 A0,0 0 0 0 363.5254,891.8906 L568.0072,891.8906 A0,0 0 0 0 568.0072,891.8906 L568.0072,866.2813 L558.0072,856.2813 L363.5254,856.2813 A0,0 0 0 0 363.5254,856.2813" fill="#FFF9C4" filter="url(#fz5uoag64b69t)" style="stroke:#F9A825;stroke-width:0.5;"/><path d="M558.0072,856.2813 L558.0072,866.2813 L568.0072,866.2813 L558.0072,856.2813" fill="#FFF9C4" style="stroke:#F9A825;stroke-width:0.5;"/><text fill="#5D4037" font-family="'Microsoft YaHei,Arial,sans-serif'" font-size="11" lengthAdjust="spacing" textLength="98.9993" x="369.5254" y="871.4917">&#20445;&#30041;&#21407;&#22987;&#23376;&#38382;&#39064;&#39034;&#24207;</text><text fill="#5D4037" font-family="'Microsoft YaHei,Arial,sans-serif'" font-size="11" lengthAdjust="spacing" textLength="21.9998" x="369.5254" y="884.2964">&#36755;&#20986;</text><text fill="#5D4037" font-family="'Microsoft YaHei,Arial,sans-serif'" font-size="11" font-weight="700" lengthAdjust="spacing" textLength="157.9854" x="395.0218" y="884.2964">List&lt;SubQuestionIntent&gt;</text><rect fill="#E3F2FD" filter="url(#fz5uoag64b69t)" height="47.9375" rx="5" ry="5" style="stroke:#1565C0;stroke-width:1;" width="176.0012" x="167.5242" y="850.1172"/><text fill="#0D47A1" font-family="'Microsoft YaHei,Arial,sans-serif'" font-size="12" lengthAdjust="spacing" textLength="106.459" x="177.5242" y="871.2559">rebuildSubIntents</text><text fill="#0D47A1" font-family="'Microsoft YaHei,Arial,sans-serif'" font-size="12" lengthAdjust="spacing" textLength="156.0012" x="177.5242" y="885.2246">&#21512;&#24182;&#32467;&#26524;&#65292;&#25353;&#23376;&#38382;&#39064;&#20998;&#32452;&#37325;&#24314;</text><ellipse cx="255.5248" cy="941.0547" fill="none" filter="url(#fz5uoag64b69t)" rx="11" ry="11" style="stroke:#222222;stroke-width:1;"/><ellipse cx="255.5248" cy="941.0547" fill="#222222" rx="6" ry="6" style="stroke:#222222;stroke-width:1;"/><line style="stroke:#1565C0;stroke-width:1.5;" x1="255.5248" x2="255.5248" y1="72.2969" y2="92.2969"/><polygon fill="#1565C0" points="251.5248,82.2969,255.5248,92.2969,259.5248,82.2969,255.5248,86.2969" style="stroke:#1565C0;stroke-width:1;"/><line style="stroke:#1565C0;stroke-width:1.5;" x1="255.5248" x2="255.5248" y1="230.0391" y2="258.5547"/><polygon fill="#1565C0" points="251.5248,248.5547,255.5248,258.5547,259.5248,248.5547,255.5248,252.5547" style="stroke:#1565C0;stroke-width:1;"/><line style="stroke:#1565C0;stroke-width:1.5;" x1="255.5248" x2="255.5248" y1="170.2656" y2="196.0703"/><polygon fill="#1565C0" points="251.5248,186.0703,255.5248,196.0703,259.5248,186.0703,255.5248,190.0703" style="stroke:#1565C0;stroke-width:1;"/><line style="stroke:#1565C0;stroke-width:1.5;" x1="324.9203" x2="469.5245" y1="158.2656" y2="158.2656"/><polygon fill="#1565C0" points="465.5245,228.5547,469.5245,238.5547,473.5245,228.5547,469.5245,232.5547" style="stroke:#1565C0;stroke-width:1.5;"/><line style="stroke:#1565C0;stroke-width:1.5;" x1="469.5245" x2="469.5245" y1="158.2656" y2="302.5547"/><line style="stroke:#1565C0;stroke-width:1.5;" x1="469.5245" x2="255.5248" y1="302.5547" y2="302.5547"/><line style="stroke:#1565C0;stroke-width:1.5;" x1="255.5248" x2="255.5248" y1="302.5547" y2="346.5234"/><polygon fill="#1565C0" points="251.5248,336.5234,255.5248,346.5234,259.5248,336.5234,255.5248,340.5234" style="stroke:#1565C0;stroke-width:1;"/><line style="stroke:#1565C0;stroke-width:1.5;" x1="255.5248" x2="255.5248" y1="126.2656" y2="146.2656"/><polygon fill="#1565C0" points="251.5248,136.2656,255.5248,146.2656,259.5248,136.2656,255.5248,140.2656" style="stroke:#1565C0;stroke-width:1;"/><line style="stroke:#1565C0;stroke-width:1.5;" x1="255.5248" x2="255.5248" y1="408.4297" y2="464.3984"/><polygon fill="#1565C0" points="251.5248,454.3984,255.5248,464.3984,259.5248,454.3984,255.5248,458.3984" style="stroke:#1565C0;stroke-width:1;"/><line style="stroke:#1565C0;stroke-width:1.5;" x1="255.5248" x2="255.5248" y1="512.3359" y2="568.3047"/><polygon fill="#1565C0" points="251.5248,558.3047,255.5248,568.3047,259.5248,558.3047,255.5248,562.3047" style="stroke:#1565C0;stroke-width:1;"/><line style="stroke:#1565C0;stroke-width:1.5;" x1="195.3461" x2="104.9502" y1="660.2422" y2="660.2422"/><line style="stroke:#1565C0;stroke-width:1.5;" x1="104.9502" x2="104.9502" y1="660.2422" y2="716.2109"/><polygon fill="#1565C0" points="100.9502,706.2109,104.9502,716.2109,108.9502,706.2109,104.9502,710.2109" style="stroke:#1565C0;stroke-width:1;"/><line style="stroke:#1565C0;stroke-width:1.5;" x1="315.7035" x2="406.0994" y1="660.2422" y2="660.2422"/><line style="stroke:#1565C0;stroke-width:1.5;" x1="406.0994" x2="406.0994" y1="660.2422" y2="682.2422"/><polygon fill="#1565C0" points="402.0994,672.2422,406.0994,682.2422,410.0994,672.2422,406.0994,676.2422" style="stroke:#1565C0;stroke-width:1;"/><line style="stroke:#1565C0;stroke-width:1.5;" x1="104.9502" x2="104.9502" y1="764.1484" y2="794.1484"/><line style="stroke:#1565C0;stroke-width:1.5;" x1="104.9502" x2="243.5248" y1="794.1484" y2="794.1484"/><polygon fill="#1565C0" points="233.5248,790.1484,243.5248,794.1484,233.5248,798.1484,237.5248,794.1484" style="stroke:#1565C0;stroke-width:1;"/><line style="stroke:#1565C0;stroke-width:1.5;" x1="406.0994" x2="406.0994" y1="716.2109" y2="794.1484"/><line style="stroke:#1565C0;stroke-width:1.5;" x1="406.0994" x2="267.5248" y1="794.1484" y2="794.1484"/><polygon fill="#1565C0" points="277.5248,790.1484,267.5248,794.1484,277.5248,798.1484,273.5248,794.1484" style="stroke:#1565C0;stroke-width:1;"/><line style="stroke:#1565C0;stroke-width:1.5;" x1="255.5248" x2="255.5248" y1="616.2422" y2="648.2422"/><polygon fill="#1565C0" points="251.5248,638.2422,255.5248,648.2422,259.5248,638.2422,255.5248,642.2422" style="stroke:#1565C0;stroke-width:1;"/><line style="stroke:#1565C0;stroke-width:1.5;" x1="255.5248" x2="255.5248" y1="806.1484" y2="850.1172"/><polygon fill="#1565C0" points="251.5248,840.1172,255.5248,850.1172,259.5248,840.1172,255.5248,844.1172" style="stroke:#1565C0;stroke-width:1;"/><line style="stroke:#1565C0;stroke-width:1.5;" x1="255.5248" x2="255.5248" y1="898.0547" y2="930.0547"/><polygon fill="#1565C0" points="251.5248,920.0547,255.5248,930.0547,259.5248,920.0547,255.5248,924.0547" style="stroke:#1565C0;stroke-width:1;"/><?plantuml-src XLLTRnf757tVNp5oNsoKj81D_9Mamk1LAxLHA_kbZsiOx9NNksXtQDHMba0bSP2DZP8uDlucJMgtKGsf6-D0RAJyWFuAPjXzob_ex0uimvUwbbVYtZDpppdtNZ2MPJKkwT8AM90Youkwbb2Z8KtHTF2P61Hdn91Wk0XZIOfg3sLr4I0z0Rb45CQaX894JKKFf1K8XhwL8xfcQ344Vf2-WlAje2vBoYr3KetR1jJbs53_mtFopn3u_5oooKTNeGvyNe7BI14a_oYZdy0l0g3FJ3VxsL7HBuPPJjEZK6_6VO4xWP2NYyyloP5b5He6y3bHcqWJwmsFZGVRqHOz9n2MfHLDZVRK5KLnCZJM0U7BYvF12N-0JtFr0k4nx-XuTxAZx1oIz1RSFpiU7lKxuLctVkYEVy8_qVIaIxGJ3Ugwzh3N32VCUV5vG5Zb_LOr10TvpMaU9BQ_ohOyNsSr-aOoaZLrOCc0_TTRSj8R2egJtIKvdRoZj2Ijea0GaUBp6fAKhrK4LMG0N4fPXSl6-Gwvs2RlKespTKhETbuGfXhLO_EyG399Sf31V-MidNFhvMvZBqtIMtZ_XYIhPBiqBJXswVBY4g9LFHx4tUxnW7lWtzy0AMxLh_xiSyLsIO1gr75S4EGO6EPFWxltm2ZuSWIW9QY2OR9R775qJJNs_o6RhytQSxn_zEd3HlqgYrDxJCYqW-YWP3yU3wwziPB7Phc8Rz8UJpECNvrQlvxX9u_nGONaY-QxabdBayC2XJa8bvlzmK1QN82A0S4mplq-OXENOuBGxj_G789nu0CVou1aKlZz1TvuGPvVMlkFXvgzdOfeYW8ZAAWe8OaUZqe86aw6uPZLp1igZ9oicUSbrpPy_HI_FMBmZGnbJUspybbSsIARJ-bxWFRwpVgd3tiJW7QWwNgBNFsgulhpZMoWkynubzhzfb6k3QkzSlssNFngZvoKIVAqNZiqYobNhW5jjVDQd5ty7TJd4WlV9w1XNy24T4u6FT_OpfE3fFLcrnRey1tSqywoRbk3u0imG_z30EVIE7j2Us8NoMMjbuV_AsZK5cGzih5q-EbYk6hOHvpvetwTPm0dhiCLILRjtmfxN6y3NFwRyN6sOvNDTHjq7tZxp7GtYp77raTd-6tIBBokNsTRB3XVWz6eSyHT61V0SxH7nRc73Gnzq_Yq2-snrNxCyeLPMwD2h6I6BYkNmLils3siHpH9-_20xZars8LrhCqglpCEUx9pmXEaWyxgJGzQgO1jHgFwZ1mTM6jPNAsuBT7XGa9MedIgU0jmxWb-VyaEs6kqqVxsekGRrJIxPT2-E3E8Du_nwRfxpYfKw8Or4URDCxnMQIqDDzACHB-riRyy_WC0?></g></svg>