<svg xmlns="http://www.w3.org/2000/svg" xmlns:xlink="http://www.w3.org/1999/xlink" contentStyleType="text/css" data-diagram-type="ACTIVITY" height="563px" preserveAspectRatio="none" style="width:468px;height:563px;background:#FFFFFF;" version="1.1" viewBox="0 0 468 563" width="468px" zoomAndPan="magnify"><?plantuml 1.2026.3beta5?><defs/><g><g class="title" data-source-line="29"><text fill="#000000" font-family="'Microsoft YaHei,Arial,sans-serif'" font-size="14" font-weight="700" lengthAdjust="spacing" textLength="111.9995" x="177.2241" y="32.9951">&#25991;&#26723;&#19978;&#20256;&#25509;&#21475;&#27969;&#31243;</text><text fill="#B0BEC5" font-family="'Microsoft YaHei,Arial,sans-serif'" font-size="11" font-weight="700" lengthAdjust="spacing" textLength="263.6724" x="101.3876" y="46.5073">KnowledgeBaseDocumentService.upload()</text></g><ellipse cx="148.5877" cy="75.1016" fill="#66BB6A" rx="10" ry="10" style="stroke:#222222;stroke-width:1;"/><path d="M237.0878,111.2656 L237.0878,118.668 L217.0878,122.668 L237.0878,126.668 L237.0878,134.0703 A0,0 0 0 0 237.0878,134.0703 L374.5653,134.0703 A0,0 0 0 0 374.5653,134.0703 L374.5653,121.2656 L364.5653,111.2656 L237.0878,111.2656 A0,0 0 0 0 237.0878,111.2656" fill="#FAFAFA" style="stroke:#CFD8DC;stroke-width:0.5;"/><path d="M364.5653,111.2656 L364.5653,121.2656 L374.5653,121.2656 L364.5653,111.2656" fill="#FAFAFA" style="stroke:#CFD8DC;stroke-width:0.5;"/><text fill="#546E7A" font-family="'Microsoft YaHei,Arial,sans-serif'" font-size="11" lengthAdjust="spacing" textLength="116.4775" x="243.0878" y="126.4761">Assert.notNull(kbDO)</text><rect fill="#ECEFF1" height="35.1328" rx="6" ry="6" style="stroke:#78909C;stroke-width:0.5;" width="137.0001" x="80.0876" y="105.1016"/><text fill="#37474F" font-family="'Microsoft YaHei,Arial,sans-serif'" font-size="13" lengthAdjust="spacing" textLength="117.0001" x="90.0876" y="127.1685">&#26657;&#39564;&#30693;&#35782;&#24211;&#26159;&#21542;&#23384;&#22312;</text><path d="M252.7887,166.3984 L252.7887,173.8008 L232.7887,177.8008 L252.7887,181.8008 L252.7887,189.2031 A0,0 0 0 0 252.7887,189.2031 L436.5866,189.2031 A0,0 0 0 0 436.5866,189.2031 L436.5866,176.3984 L426.5866,166.3984 L252.7887,166.3984 A0,0 0 0 0 252.7887,166.3984" fill="#FAFAFA" style="stroke:#CFD8DC;stroke-width:0.5;"/><path d="M426.5866,166.3984 L426.5866,176.3984 L436.5866,176.3984 L426.5866,166.3984" fill="#FAFAFA" style="stroke:#CFD8DC;stroke-width:0.5;"/><text fill="#546E7A" font-family="'Microsoft YaHei,Arial,sans-serif'" font-size="11" lengthAdjust="spacing" textLength="162.7979" x="258.7887" y="181.6089">validateSourceAndSchedule()</text><rect fill="#ECEFF1" height="35.1328" rx="6" ry="6" style="stroke:#78909C;stroke-width:0.5;" width="168.402" x="64.3867" y="160.2344"/><text fill="#37474F" font-family="'Microsoft YaHei,Arial,sans-serif'" font-size="13" lengthAdjust="spacing" textLength="148.402" x="74.3867" y="182.3013">&#26657;&#39564;&#26469;&#28304;&#21442;&#25968; &amp; &#23450;&#26102;&#21516;&#27493;</text><polygon fill="#F5F5F5" points="107.4676,215.3672,189.7078,215.3672,201.7078,227.3672,189.7078,239.3672,107.4676,239.3672,95.4676,227.3672,107.4676,215.3672" style="stroke:#A1887F;stroke-width:0.5;"/><text fill="#4E342E" font-family="'Microsoft YaHei,Arial,sans-serif'" font-size="13" lengthAdjust="spacing" textLength="82.2402" x="107.4676" y="231.8677">sourceType?</text><text fill="#000000" font-family="'Microsoft YaHei,Arial,sans-serif'" font-size="13" lengthAdjust="spacing" textLength="26.7681" x="68.6995" y="224.3013">FILE</text><text fill="#000000" font-family="'Microsoft YaHei,Arial,sans-serif'" font-size="13" lengthAdjust="spacing" textLength="25.7905" x="201.7078" y="224.3013">URL</text><rect fill="#ECEFF1" height="35.1328" rx="6" ry="6" style="stroke:#78909C;stroke-width:0.5;" width="115.8687" x="16" y="249.3672"/><text fill="#37474F" font-family="'Microsoft YaHei,Arial,sans-serif'" font-size="13" lengthAdjust="spacing" textLength="95.8687" x="26" y="271.4341">&#30452;&#20256;&#25991;&#20214;&#21040; OSS</text><rect fill="#ECEFF1" height="50.2656" rx="6" ry="6" style="stroke:#78909C;stroke-width:0.5;" width="142.7446" x="151.8687" y="249.3672"/><text fill="#37474F" font-family="'Microsoft YaHei,Arial,sans-serif'" font-size="13" lengthAdjust="spacing" textLength="122.7446" x="161.8687" y="271.4341">RemoteFileFetcher</text><text fill="#37474F" font-family="'Microsoft YaHei,Arial,sans-serif'" font-size="13" lengthAdjust="spacing" textLength="121.8688" x="161.8687" y="286.5669">&#36828;&#31243;&#25235;&#21462;&#21518;&#19978;&#20256; OSS</text><polygon fill="#F5F5F5" points="148.5877,305.6328,160.5877,317.6328,148.5877,329.6328,136.5877,317.6328,148.5877,305.6328" style="stroke:#A1887F;stroke-width:0.5;"/><path d="M250.0878,342.9922 L250.0878,363.1992 L230.0878,367.1992 L250.0878,371.1992 L250.0878,391.4063 A0,0 0 0 0 250.0878,391.4063 L447.4477,391.4063 A0,0 0 0 0 447.4477,391.4063 L447.4477,352.9922 L437.4477,342.9922 L250.0878,342.9922 A0,0 0 0 0 250.0878,342.9922" fill="#FAFAFA" style="stroke:#CFD8DC;stroke-width:0.5;"/><path d="M437.4477,342.9922 L437.4477,352.9922 L447.4477,352.9922 L437.4477,342.9922" fill="#FAFAFA" style="stroke:#CFD8DC;stroke-width:0.5;"/><text fill="#546E7A" font-family="'Microsoft YaHei,Arial,sans-serif'" font-size="11" lengthAdjust="spacing" textLength="156.0947" x="256.0878" y="358.2026">resolveProcessModeConfig()</text><text fill="#546E7A" font-family="'Microsoft YaHei,Arial,sans-serif'" font-size="11" lengthAdjust="spacing" textLength="176.3599" x="256.0878" y="371.0073">&#8594; processMode / chunkStrategy</text><text fill="#546E7A" font-family="'Microsoft YaHei,Arial,sans-serif'" font-size="11" lengthAdjust="spacing" textLength="120.6348" x="256.0878" y="383.812">&#8594; chunkSize / overlap</text><rect fill="#ECEFF1" height="35.1328" rx="6" ry="6" style="stroke:#78909C;stroke-width:0.5;" width="163.0002" x="67.0876" y="349.6328"/><text fill="#37474F" font-family="'Microsoft YaHei,Arial,sans-serif'" font-size="13" lengthAdjust="spacing" textLength="143.0002" x="77.0876" y="371.6997">&#35299;&#26512;&#22788;&#29702;&#27169;&#24335;&#19982;&#20998;&#22359;&#31574;&#30053;</text><path d="M237.0878,411.168 L237.0878,424.9727 L217.0878,428.9727 L237.0878,432.9727 L237.0878,446.7773 A0,0 0 0 0 237.0878,446.7773 L381.4449,446.7773 A0,0 0 0 0 381.4449,446.7773 L381.4449,421.168 L371.4449,411.168 L237.0878,411.168 A0,0 0 0 0 237.0878,411.168" fill="#FAFAFA" style="stroke:#CFD8DC;stroke-width:0.5;"/><path d="M371.4449,411.168 L371.4449,421.168 L381.4449,421.168 L371.4449,411.168" fill="#FAFAFA" style="stroke:#CFD8DC;stroke-width:0.5;"/><text fill="#546E7A" font-family="'Microsoft YaHei,Arial,sans-serif'" font-size="11" lengthAdjust="spacing" textLength="46.5137" x="243.0878" y="426.3784">status =</text><text fill="#546E7A" font-family="'Microsoft YaHei,Arial,sans-serif'" font-size="11" font-weight="700" lengthAdjust="spacing" textLength="56.2407" x="293.098" y="426.3784">PENDING</text><text fill="#546E7A" font-family="'Microsoft YaHei,Arial,sans-serif'" font-size="11" lengthAdjust="spacing" textLength="123.3571" x="243.0878" y="439.1831">&#9888;&#65039; &#19981;&#35302;&#21457;&#20998;&#22359;&#65292;&#24322;&#27493;&#22788;&#29702;</text><rect fill="#ECEFF1" height="35.1328" rx="6" ry="6" style="stroke:#78909C;stroke-width:0.5;" width="137.0001" x="80.0876" y="411.4063"/><text fill="#37474F" font-family="'Microsoft YaHei,Arial,sans-serif'" font-size="13" lengthAdjust="spacing" textLength="117.0001" x="90.0876" y="433.4731">&#26500;&#24314;&#25991;&#26723;&#35760;&#24405;&#24182;&#20837;&#24211;</text><rect fill="#ECEFF1" height="35.1328" rx="6" ry="6" style="stroke:#78909C;stroke-width:0.5;" width="165.1392" x="66.0181" y="466.7773"/><text fill="#37474F" font-family="'Microsoft YaHei,Arial,sans-serif'" font-size="13" lengthAdjust="spacing" textLength="26" x="76.0181" y="488.8442">&#36820;&#22238;</text><text fill="#37474F" font-family="'Microsoft YaHei,Arial,sans-serif'" font-size="13" font-weight="700" lengthAdjust="spacing" textLength="115.0068" x="106.1505" y="488.8442">KbDocumentVO</text><ellipse cx="148.5877" cy="532.9102" fill="none" rx="11" ry="11" style="stroke:#222222;stroke-width:1;"/><ellipse cx="148.5877" cy="532.9102" fill="#222222" rx="6" ry="6" style="stroke:#222222;stroke-width:1;"/><line style="stroke:#90A4AE;stroke-width:1.5;" x1="148.5877" x2="148.5877" y1="85.1016" y2="105.1016"/><polygon fill="#90A4AE" points="144.5877,95.1016,148.5877,105.1016,152.5877,95.1016,148.5877,99.1016" style="stroke:#90A4AE;stroke-width:1;"/><line style="stroke:#90A4AE;stroke-width:1.5;" x1="148.5877" x2="148.5877" y1="140.2344" y2="160.2344"/><polygon fill="#90A4AE" points="144.5877,150.2344,148.5877,160.2344,152.5877,150.2344,148.5877,154.2344" style="stroke:#90A4AE;stroke-width:1;"/><line style="stroke:#90A4AE;stroke-width:1.5;" x1="95.4676" x2="73.9344" y1="227.3672" y2="227.3672"/><line style="stroke:#90A4AE;stroke-width:1.5;" x1="73.9344" x2="73.9344" y1="227.3672" y2="249.3672"/><polygon fill="#90A4AE" points="69.9344,239.3672,73.9344,249.3672,77.9344,239.3672,73.9344,243.3672" style="stroke:#90A4AE;stroke-width:1;"/><line style="stroke:#90A4AE;stroke-width:1.5;" x1="201.7078" x2="223.241" y1="227.3672" y2="227.3672"/><line style="stroke:#90A4AE;stroke-width:1.5;" x1="223.241" x2="223.241" y1="227.3672" y2="249.3672"/><polygon fill="#90A4AE" points="219.241,239.3672,223.241,249.3672,227.241,239.3672,223.241,243.3672" style="stroke:#90A4AE;stroke-width:1;"/><line style="stroke:#90A4AE;stroke-width:1.5;" x1="73.9344" x2="73.9344" y1="284.5" y2="317.6328"/><line style="stroke:#90A4AE;stroke-width:1.5;" x1="73.9344" x2="136.5877" y1="317.6328" y2="317.6328"/><polygon fill="#90A4AE" points="126.5877,313.6328,136.5877,317.6328,126.5877,321.6328,130.5877,317.6328" style="stroke:#90A4AE;stroke-width:1;"/><line style="stroke:#90A4AE;stroke-width:1.5;" x1="223.241" x2="223.241" y1="299.6328" y2="317.6328"/><line style="stroke:#90A4AE;stroke-width:1.5;" x1="223.241" x2="160.5877" y1="317.6328" y2="317.6328"/><polygon fill="#90A4AE" points="170.5877,313.6328,160.5877,317.6328,170.5877,321.6328,166.5877,317.6328" style="stroke:#90A4AE;stroke-width:1;"/><line style="stroke:#90A4AE;stroke-width:1.5;" x1="148.5877" x2="148.5877" y1="195.3672" y2="215.3672"/><polygon fill="#90A4AE" points="144.5877,205.3672,148.5877,215.3672,152.5877,205.3672,148.5877,209.3672" style="stroke:#90A4AE;stroke-width:1;"/><line style="stroke:#90A4AE;stroke-width:1.5;" x1="148.5877" x2="148.5877" y1="329.6328" y2="349.6328"/><polygon fill="#90A4AE" points="144.5877,339.6328,148.5877,349.6328,152.5877,339.6328,148.5877,343.6328" style="stroke:#90A4AE;stroke-width:1;"/><line style="stroke:#90A4AE;stroke-width:1.5;" x1="148.5877" x2="148.5877" y1="384.7656" y2="411.4063"/><polygon fill="#90A4AE" points="144.5877,401.4063,148.5877,411.4063,152.5877,401.4063,148.5877,405.4063" style="stroke:#90A4AE;stroke-width:1;"/><line style="stroke:#90A4AE;stroke-width:1.5;" x1="148.5877" x2="148.5877" y1="446.5391" y2="466.7773"/><polygon fill="#90A4AE" points="144.5877,456.7773,148.5877,466.7773,152.5877,456.7773,148.5877,460.7773" style="stroke:#90A4AE;stroke-width:1;"/><line style="stroke:#90A4AE;stroke-width:1.5;" x1="148.5877" x2="148.5877" y1="501.9102" y2="521.9102"/><polygon fill="#90A4AE" points="144.5877,511.9102,148.5877,521.9102,152.5877,511.9102,148.5877,515.9102" style="stroke:#90A4AE;stroke-width:1;"/><?plantuml-src TLDTJnD157tVNp7Hn9G6APMMGgarstPN2GB6gec9BzFTQJlfTgQPtIr1uuC4WI3I-W4QFn22LMA2yg044UD_CPrjVU8lEBijK41ddlQSE_VSS-zTiu192J9O11ce5NACsaHFKeCoS5RrZcGUHfXvgDC9J78W2mqJTJ0woaBRi5HAh35OHE3CADOODMdM0hVX5OIxPOQXqMr2Ofut4SFPC_z-dCPt4GZsTP3jWXX130GlI1qCr2nSnjOak2S1SH8dorUIYge6MnnbEc9jF38ms3kOz71NietsHKAHa7g87XJYVgSmB5AYdn9Gm-uz5jAf8mS71Y9g9zqX5rBwGXSKZqnRa1t0_Vs9HB_imSgH4JNS5-wLxdUQ9zH2_pEkokuzRJoffWPIfuo7G_rAH3vXF7XSJMQCJhJZ1tlbaAoS96_aiLOWo3H1i2SiIHQs30HYcRYpFEkihTTtvkjxgyvYZLVMdMyF6XkFOe5C_0w9cK8j6Wp6OvgRF7esqPjGak7u2A4J1j9pA05DbAAQNKIYCiJAM4CzTicWKFTrnGBUetWiu6Q9YthTHafIr5bT-_DfeV6krlmomtUVEI-_yEe7llcIlzaOahp6CPpBMr4Wcs8NhHu1ZTc6uIjaKkDTX--TjpLdjyehKyxI5ZW7-ETNpejjNbrmDcl7ivIXWNLeeJIrcOPaegUrFD9j0_b4Cfm5FjCZRaoMqAKkOEKH0Jvr-AhIvVKysdZzrUtDycpznpQVsmBZwVIGXCJl1Nmthrzj1rr7HQ6eOWEfo1BfsHtI_FL6zD6PVyOhoxows6fn-pNHSLOOQNvSTrQg_FrqephZRApnlKfzPv7FpV2tBngRousbOqOy8OPCQfJHDKOrCSjHggCa9LcSyxNg-3tp59IEE100MjucXRJ5XF_Sv65C2tKtAG1e6J43bjoYlArr6xmopN_ijbQZ-NcB_rpYtxVvmveOrgcAn50jsmGNWTz_JHbB3OzTzljREgzMztSgeBxpkFdn0wyyQVdQtrlWUrDYHYtNdQhDNy_vwnMHPoHpi5Atnlt-8NTnQEal?></g></svg>