<svg xmlns="http://www.w3.org/2000/svg" xmlns:xlink="http://www.w3.org/1999/xlink" contentStyleType="text/css" data-diagram-type="DESCRIPTION" height="650px" preserveAspectRatio="none" style="width:1104px;height:650px;background:#FAFBFC;" version="1.1" viewBox="0 0 1104 650" width="1104px" zoomAndPan="magnify"><?plantuml 1.2026.3beta6?><defs><filter height="300%" id="fy3ivggcj5i86" width="300%" x="-1" y="-1"><feGaussianBlur result="blurOut" stdDeviation="2"/><feColorMatrix in="blurOut" result="blurOut2" type="matrix" values="0 0 0 0 0 0 0 0 0 0 0 0 0 0 0 0 0 0 .4 0"/><feOffset dx="4" dy="4" in="blurOut2" result="blurOut3"/><feBlend in="SourceGraphic" in2="blurOut3" mode="normal"/></filter></defs><g><rect fill="#FAFBFC" height="650" style="stroke:none;stroke-width:1;" width="1104" x="0" y="0"/><g class="title" data-source-line="35"><text fill="#000000" font-family="'Microsoft YaHei,Arial,sans-serif'" font-size="16" font-weight="700" lengthAdjust="spacing" textLength="221.9377" x="437.6539" y="24.8516">Ragent AI &#22522;&#30784;&#35774;&#26045;&#20998;&#23618;&#26550;&#26500;</text></g><!--cluster biz--><g class="cluster" data-qualified-name="biz" data-source-line="37" id="ent0002"><rect fill="#E8F5E9" filter="url(#fy3ivggcj5i86)" height="275.31" rx="2.5" ry="2.5" style="stroke:#1565C0;stroke-width:1;" width="300" x="7" y="46.625"/><text fill="#000000" font-family="'Microsoft YaHei,Arial,sans-serif'" font-size="12" font-weight="700" lengthAdjust="spacing" textLength="36.0003" x="138.9999" y="59.7637">&#19994;&#21153;&#23618;</text></g><!--cluster infra--><g class="cluster" data-qualified-name="infra" data-source-line="52" id="ent0010"><rect fill="#E3F2FD" filter="url(#fy3ivggcj5i86)" height="109.13" rx="2.5" ry="2.5" style="stroke:#1565C0;stroke-width:1;" width="540" x="347" y="212.805"/><text fill="#000000" font-family="'Microsoft YaHei,Arial,sans-serif'" font-size="12" font-weight="700" lengthAdjust="spacing" textLength="77.2619" x="578.369" y="225.9437">infra-ai &#27169;&#22359;</text></g><!--cluster providers--><g class="cluster" data-qualified-name="providers" data-source-line="70" id="ent0021"><rect fill="#FFF3E0" filter="url(#fy3ivggcj5i86)" height="245.53" rx="2.5" ry="2.5" style="stroke:#1565C0;stroke-width:1;" width="346" x="541" y="384.935"/><text fill="#000000" font-family="'Microsoft YaHei,Arial,sans-serif'" font-size="12" font-weight="700" lengthAdjust="spacing" textLength="67.4124" x="680.2938" y="398.0737">LLM &#20379;&#24212;&#21830;</text></g><!--entity chat--><g class="entity" data-qualified-name="biz.chat" data-source-line="38" id="ent0003"><rect fill="#C8E6C9" filter="url(#fy3ivggcj5i86)" height="45.1328" rx="2.5" ry="2.5" style="stroke:#1565C0;stroke-width:2;" width="92.0001" x="31" y="86.625"/><rect fill="#C8E6C9" height="10" style="stroke:#1565C0;stroke-width:2;" width="15" x="103.0001" y="91.625"/><rect fill="#C8E6C9" height="2" style="stroke:#1565C0;stroke-width:2;" width="4" x="101.0001" y="93.625"/><rect fill="#C8E6C9" height="2" style="stroke:#1565C0;stroke-width:2;" width="4" x="101.0001" y="97.625"/><text fill="#0D47A1" font-family="'Microsoft YaHei,Arial,sans-serif'" font-size="13" lengthAdjust="spacing" textLength="52.0001" x="46" y="118.6919">&#23545;&#35805;&#26381;&#21153;</text></g><!--entity kb--><g class="entity" data-qualified-name="biz.kb" data-source-line="39" id="ent0004"><rect fill="#C8E6C9" filter="url(#fy3ivggcj5i86)" height="45.1328" rx="2.5" ry="2.5" style="stroke:#1565C0;stroke-width:2;" width="105.0001" x="158.5" y="86.625"/><rect fill="#C8E6C9" height="10" style="stroke:#1565C0;stroke-width:2;" width="15" x="243.5001" y="91.625"/><rect fill="#C8E6C9" height="2" style="stroke:#1565C0;stroke-width:2;" width="4" x="241.5001" y="93.625"/><rect fill="#C8E6C9" height="2" style="stroke:#1565C0;stroke-width:2;" width="4" x="241.5001" y="97.625"/><text fill="#0D47A1" font-family="'Microsoft YaHei,Arial,sans-serif'" font-size="13" lengthAdjust="spacing" textLength="65.0001" x="173.5" y="118.6919">&#30693;&#35782;&#24211;&#26816;&#32034;</text></g><!--entity rag--><g class="entity" data-qualified-name="biz.rag" data-source-line="40" id="ent0005"><rect fill="#C8E6C9" filter="url(#fy3ivggcj5i86)" height="45.1328" rx="2.5" ry="2.5" style="stroke:#1565C0;stroke-width:2;" width="98.1319" x="30.93" y="252.805"/><rect fill="#C8E6C9" height="10" style="stroke:#1565C0;stroke-width:2;" width="15" x="109.0619" y="257.805"/><rect fill="#C8E6C9" height="2" style="stroke:#1565C0;stroke-width:2;" width="4" x="107.0619" y="259.805"/><rect fill="#C8E6C9" height="2" style="stroke:#1565C0;stroke-width:2;" width="4" x="107.0619" y="263.805"/><text fill="#0D47A1" font-family="'Microsoft YaHei,Arial,sans-serif'" font-size="13" lengthAdjust="spacing" textLength="58.1319" x="45.93" y="284.8719">RAG &#38142;&#36335;</text></g><!--entity other--><g class="entity" data-qualified-name="biz.other" data-source-line="41" id="ent0006"><rect fill="#C8E6C9" filter="url(#fy3ivggcj5i86)" height="45.1328" rx="2.5" ry="2.5" style="stroke:#1565C0;stroke-width:2;" width="92.0001" x="164" y="252.805"/><rect fill="#C8E6C9" height="10" style="stroke:#1565C0;stroke-width:2;" width="15" x="236.0001" y="257.805"/><rect fill="#C8E6C9" height="2" style="stroke:#1565C0;stroke-width:2;" width="4" x="234.0001" y="259.805"/><rect fill="#C8E6C9" height="2" style="stroke:#1565C0;stroke-width:2;" width="4" x="234.0001" y="263.805"/><text fill="#0D47A1" font-family="'Microsoft YaHei,Arial,sans-serif'" font-size="13" lengthAdjust="spacing" textLength="52.0001" x="179" y="284.8719">&#20854;&#20182;&#19994;&#21153;</text></g><!--entity route--><g class="entity" data-qualified-name="infra.route" data-source-line="53" id="ent0011"><rect fill="#BBDEFB" filter="url(#fy3ivggcj5i86)" height="45.1328" rx="2.5" ry="2.5" style="stroke:#1565C0;stroke-width:2;" width="92.0001" x="498" y="252.805"/><rect fill="#BBDEFB" height="10" style="stroke:#1565C0;stroke-width:2;" width="15" x="570.0001" y="257.805"/><rect fill="#BBDEFB" height="2" style="stroke:#1565C0;stroke-width:2;" width="4" x="568.0001" y="259.805"/><rect fill="#BBDEFB" height="2" style="stroke:#1565C0;stroke-width:2;" width="4" x="568.0001" y="263.805"/><text fill="#0D47A1" font-family="'Microsoft YaHei,Arial,sans-serif'" font-size="13" lengthAdjust="spacing" textLength="52.0001" x="513" y="284.8719">&#36335;&#30001;&#36873;&#25321;</text></g><!--entity circuit--><g class="entity" data-qualified-name="infra.circuit" data-source-line="54" id="ent0012"><rect fill="#BBDEFB" filter="url(#fy3ivggcj5i86)" height="45.1328" rx="2.5" ry="2.5" style="stroke:#1565C0;stroke-width:2;" width="92.0001" x="625" y="252.805"/><rect fill="#BBDEFB" height="10" style="stroke:#1565C0;stroke-width:2;" width="15" x="697.0001" y="257.805"/><rect fill="#BBDEFB" height="2" style="stroke:#1565C0;stroke-width:2;" width="4" x="695.0001" y="259.805"/><rect fill="#BBDEFB" height="2" style="stroke:#1565C0;stroke-width:2;" width="4" x="695.0001" y="263.805"/><text fill="#0D47A1" font-family="'Microsoft YaHei,Arial,sans-serif'" font-size="13" lengthAdjust="spacing" textLength="52.0001" x="640" y="284.8719">&#29076;&#26029;&#26816;&#26597;</text></g><!--entity fallback--><g class="entity" data-qualified-name="infra.fallback" data-source-line="55" id="ent0013"><rect fill="#BBDEFB" filter="url(#fy3ivggcj5i86)" height="45.1328" rx="2.5" ry="2.5" style="stroke:#1565C0;stroke-width:2;" width="92.0001" x="752" y="252.805"/><rect fill="#BBDEFB" height="10" style="stroke:#1565C0;stroke-width:2;" width="15" x="824.0001" y="257.805"/><rect fill="#BBDEFB" height="2" style="stroke:#1565C0;stroke-width:2;" width="4" x="822.0001" y="259.805"/><rect fill="#BBDEFB" height="2" style="stroke:#1565C0;stroke-width:2;" width="4" x="822.0001" y="263.805"/><text fill="#0D47A1" font-family="'Microsoft YaHei,Arial,sans-serif'" font-size="13" lengthAdjust="spacing" textLength="52.0001" x="767" y="284.8719">&#25925;&#38556;&#36716;&#31227;</text></g><!--entity config--><g class="entity" data-qualified-name="infra.config" data-source-line="56" id="ent0014"><rect fill="#BBDEFB" filter="url(#fy3ivggcj5i86)" height="45.1328" rx="2.5" ry="2.5" style="stroke:#1565C0;stroke-width:2;" width="92.0001" x="371" y="252.805"/><rect fill="#BBDEFB" height="10" style="stroke:#1565C0;stroke-width:2;" width="15" x="443.0001" y="257.805"/><rect fill="#BBDEFB" height="2" style="stroke:#1565C0;stroke-width:2;" width="4" x="441.0001" y="259.805"/><rect fill="#BBDEFB" height="2" style="stroke:#1565C0;stroke-width:2;" width="4" x="441.0001" y="263.805"/><text fill="#0D47A1" font-family="'Microsoft YaHei,Arial,sans-serif'" font-size="13" lengthAdjust="spacing" textLength="52.0001" x="386" y="284.8719">&#37197;&#32622;&#39537;&#21160;</text></g><!--entity dashscope--><g class="entity" data-qualified-name="providers.dashscope" data-source-line="71" id="ent0022"><rect fill="#FFE0B2" filter="url(#fy3ivggcj5i86)" height="60.2656" rx="2.5" ry="2.5" style="stroke:#1565C0;stroke-width:2;" width="122.7354" x="564.63" y="424.935"/><rect fill="#FFE0B2" height="10" style="stroke:#1565C0;stroke-width:2;" width="15" x="667.3654" y="429.935"/><rect fill="#FFE0B2" height="2" style="stroke:#1565C0;stroke-width:2;" width="4" x="665.3654" y="431.935"/><rect fill="#FFE0B2" height="2" style="stroke:#1565C0;stroke-width:2;" width="4" x="665.3654" y="435.935"/><text fill="#0D47A1" font-family="'Microsoft YaHei,Arial,sans-serif'" font-size="13" lengthAdjust="spacing" textLength="26" x="579.63" y="457.0019">&#30334;&#28860;</text><text fill="#0D47A1" font-family="'Microsoft YaHei,Arial,sans-serif'" font-size="13" lengthAdjust="spacing" textLength="82.7354" x="579.63" y="472.1347">(DashScope)</text></g><!--entity silicon--><g class="entity" data-qualified-name="providers.silicon" data-source-line="72" id="ent0023"><rect fill="#FFE0B2" filter="url(#fy3ivggcj5i86)" height="60.2656" rx="2.5" ry="2.5" style="stroke:#1565C0;stroke-width:2;" width="122.2466" x="721.88" y="424.935"/><rect fill="#FFE0B2" height="10" style="stroke:#1565C0;stroke-width:2;" width="15" x="824.1266" y="429.935"/><rect fill="#FFE0B2" height="2" style="stroke:#1565C0;stroke-width:2;" width="4" x="822.1266" y="431.935"/><rect fill="#FFE0B2" height="2" style="stroke:#1565C0;stroke-width:2;" width="4" x="822.1266" y="435.935"/><text fill="#0D47A1" font-family="'Microsoft YaHei,Arial,sans-serif'" font-size="13" lengthAdjust="spacing" textLength="52.0001" x="736.88" y="457.0019">&#30789;&#22522;&#27969;&#21160;</text><text fill="#0D47A1" font-family="'Microsoft YaHei,Arial,sans-serif'" font-size="13" lengthAdjust="spacing" textLength="82.2466" x="736.88" y="472.1347">(SiliconFlow)</text></g><!--entity ollama--><g class="entity" data-qualified-name="providers.ollama" data-source-line="73" id="ent0024"><rect fill="#FFE0B2" filter="url(#fy3ivggcj5i86)" height="60.2656" rx="2.5" ry="2.5" style="stroke:#1565C0;stroke-width:2;" width="102.1436" x="574.93" y="546.195"/><rect fill="#FFE0B2" height="10" style="stroke:#1565C0;stroke-width:2;" width="15" x="657.0736" y="551.195"/><rect fill="#FFE0B2" height="2" style="stroke:#1565C0;stroke-width:2;" width="4" x="655.0736" y="553.195"/><rect fill="#FFE0B2" height="2" style="stroke:#1565C0;stroke-width:2;" width="4" x="655.0736" y="557.195"/><text fill="#0D47A1" font-family="'Microsoft YaHei,Arial,sans-serif'" font-size="13" lengthAdjust="spacing" textLength="46.0522" x="589.93" y="578.2619">Ollama</text><text fill="#0D47A1" font-family="'Microsoft YaHei,Arial,sans-serif'" font-size="13" lengthAdjust="spacing" textLength="62.1436" x="589.93" y="593.3947">(&#26412;&#22320;&#37096;&#32626;)</text></g><!--entity vllm--><g class="entity" data-qualified-name="providers.vllm" data-source-line="74" id="ent0025"><rect fill="#FFE0B2" filter="url(#fy3ivggcj5i86)" height="60.2656" rx="2.5" ry="2.5" style="stroke:#1565C0;stroke-width:2;" width="131.2984" x="712.35" y="546.195"/><rect fill="#FFE0B2" height="10" style="stroke:#1565C0;stroke-width:2;" width="15" x="823.6484" y="551.195"/><rect fill="#FFE0B2" height="2" style="stroke:#1565C0;stroke-width:2;" width="4" x="821.6484" y="553.195"/><rect fill="#FFE0B2" height="2" style="stroke:#1565C0;stroke-width:2;" width="4" x="821.6484" y="557.195"/><text fill="#0D47A1" font-family="'Microsoft YaHei,Arial,sans-serif'" font-size="13" lengthAdjust="spacing" textLength="64.7271" x="727.35" y="578.2619">&#20854;&#23427;AI&#21378;&#21830;</text><text fill="#0D47A1" font-family="'Microsoft YaHei,Arial,sans-serif'" font-size="13" lengthAdjust="spacing" textLength="91.2984" x="727.35" y="593.3947">&#65288;&#26412;&#22320;or&#20113;&#19978;&#65289;</text></g><g class="entity" data-qualified-name="GMN7" data-source-line="45" id="ent0008"><path d="M333.87,74.585 L333.87,143.8038 L470.1337,143.8038 L470.1337,84.585 L460.1337,74.585 L333.87,74.585" fill="#FFF9C4" filter="url(#fy3ivggcj5i86)" style="stroke:#F9A825;stroke-width:0.5;"/><path d="M460.1337,74.585 L460.1337,84.585 L470.1337,84.585 L460.1337,74.585" fill="#FFF9C4" style="stroke:#F9A825;stroke-width:1;"/><text fill="#5D4037" font-family="'Microsoft YaHei,Arial,sans-serif'" font-size="11" lengthAdjust="spacing" textLength="87.9994" x="339.87" y="89.7954">&#23545;&#22806;&#25552;&#20379;&#32479;&#19968;&#25509;&#21475;</text><line style="stroke:#F9A825;stroke-width:1;stroke-dasharray:1,2;" x1="334.87" x2="469.1337" y1="92.3897" y2="92.3897"/><text fill="#5D4037" font-family="'Microsoft YaHei,Arial,sans-serif'" font-size="11" font-weight="700" lengthAdjust="spacing" textLength="70.6943" x="339.87" y="106.6001">LLMService</text><text fill="#5D4037" font-family="'Microsoft YaHei,Arial,sans-serif'" font-size="11" font-weight="700" lengthAdjust="spacing" textLength="115.2637" x="339.87" y="119.4048">EmbeddingService</text><text fill="#5D4037" font-family="'Microsoft YaHei,Arial,sans-serif'" font-size="11" font-weight="700" lengthAdjust="spacing" textLength="89.6543" x="339.87" y="132.2095">RerankService</text></g><g class="entity" data-qualified-name="GMN18" data-source-line="64" id="ent0019"><path d="M914.4,247.165 L914.4,303.5791 L1061.6092,303.5791 L1061.6092,257.165 L1051.6092,247.165 L914.4,247.165" fill="#FFF9C4" filter="url(#fy3ivggcj5i86)" style="stroke:#F9A825;stroke-width:0.5;"/><path d="M1051.6092,247.165 L1051.6092,257.165 L1061.6092,257.165 L1051.6092,247.165" fill="#FFF9C4" style="stroke:#F9A825;stroke-width:1;"/><text fill="#5D4037" font-family="'Microsoft YaHei,Arial,sans-serif'" font-size="11" font-weight="700" lengthAdjust="spacing" textLength="43.9997" x="920.4" y="262.3754">&#26680;&#24515;&#33021;&#21147;</text><line style="stroke:#F9A825;stroke-width:1;stroke-dasharray:1,2;" x1="915.4" x2="1060.6092" y1="264.9697" y2="264.9697"/><text fill="#5D4037" font-family="'Microsoft YaHei,Arial,sans-serif'" font-size="11" lengthAdjust="spacing" textLength="126.2092" x="920.4" y="279.1801">&#37197;&#32622;&#39537;&#21160; &#8594; &#20379;&#24212;&#21830;&#21487;&#25554;&#25300;</text><text fill="#5D4037" font-family="'Microsoft YaHei,Arial,sans-serif'" font-size="11" lengthAdjust="spacing" textLength="126.2092" x="920.4" y="291.9848">&#33258;&#21160;&#29076;&#26029; &#8594; &#25925;&#38556;&#33258;&#21160;&#36716;&#31227;</text></g><g class="entity" data-qualified-name="GMN28" data-source-line="81" id="ent0029"><path d="M910.75,564.925 L910.75,587.7297 L1089.2455,587.7297 L1089.2455,574.925 L1079.2455,564.925 L910.75,564.925" fill="#E8F5E9" filter="url(#fy3ivggcj5i86)" style="stroke:#F9A825;stroke-width:0.5;"/><path d="M1079.2455,564.925 L1079.2455,574.925 L1089.2455,574.925 L1079.2455,564.925" fill="#E8F5E9" style="stroke:#F9A825;stroke-width:1;"/><text fill="#5D4037" font-family="'Microsoft YaHei,Arial,sans-serif'" font-size="11" lengthAdjust="spacing" textLength="120.9992" x="916.75" y="580.1354">&#20379;&#24212;&#21830;&#21487;&#28909;&#20999;&#25442;&#65292;&#19994;&#21153;&#23618;</text><text fill="#5D4037" font-family="'Microsoft YaHei,Arial,sans-serif'" font-size="11" font-weight="700" lengthAdjust="spacing" textLength="32.9998" x="1041.2457" y="580.1354">&#38646;&#24863;&#30693;</text></g><!--link biz to GMN7--><g class="link" data-entity-1="ent0002" data-entity-2="ent0008" data-link-type="association" data-source-line="45" id="lnk9"><path d="M307.0948,109.195 C307.139,109.195 307.1832,109.195 307.2274,109.195 C307.581,109.195 307.9347,109.195 308.2883,109.195 C311.1172,109.195 313.9456,109.195 316.7738,109.195 C322.43,109.195 328.085,109.195 333.74,109.195" fill="none" id="biz-GMN7" style="stroke:#1565C0;stroke-width:2;stroke-dasharray:7,7;"/></g><!--link route to circuit--><g class="link" data-entity-1="ent0011" data-entity-2="ent0012" data-link-type="dependency" data-source-line="58" id="lnk15"><path d="M590.14,275.365 C601.61,275.365 607.09,275.365 618.57,275.365" fill="none" id="route-to-circuit" style="stroke:#1565C0;stroke-width:2;"/><polygon fill="#1565C0" points="624.57,275.365,615.57,271.365,619.57,275.365,615.57,279.365,624.57,275.365" style="stroke:#1565C0;stroke-width:2;"/></g><!--link circuit to fallback--><g class="link" data-entity-1="ent0012" data-entity-2="ent0013" data-link-type="dependency" data-source-line="59" id="lnk16"><path d="M717.14,275.365 C728.61,275.365 734.09,275.365 745.57,275.365" fill="none" id="circuit-to-fallback" style="stroke:#1565C0;stroke-width:2;"/><polygon fill="#1565C0" points="751.57,275.365,742.57,271.365,746.57,275.365,742.57,279.365,751.57,275.365" style="stroke:#1565C0;stroke-width:2;"/></g><!--link config to route--><!--link infra to GMN18--><g class="link" data-entity-1="ent0010" data-entity-2="ent0019" data-link-type="association" data-source-line="64" id="lnk20"><path d="M887.0692,275.365 C887.1584,275.365 887.2475,275.365 887.3366,275.365 C887.693,275.365 888.0495,275.365 888.4059,275.365 C891.2575,275.365 894.1088,275.365 896.96,275.365 C902.6625,275.365 908.365,275.365 914.07,275.365" fill="none" id="infra-GMN18" style="stroke:#1565C0;stroke-width:2;stroke-dasharray:7,7;"/></g><!--link biz to infra--><g class="link" data-entity-1="ent0002" data-entity-2="ent0010" data-link-type="dependency" data-source-line="77" id="lnk26"><path d="M307.0195,133.753 C307.0522,133.8081 307.0851,133.8631 307.118,133.918 C307.1839,134.0279 307.2503,134.1376 307.3172,134.2469 C307.451,134.4656 307.5867,134.6833 307.7245,134.8997 C309.9294,138.3625 312.6525,141.515 316,143.805 C416.26,212.365 768.19,117.275 860,196.805 C863.2488,199.6188 865.9894,202.8884 868.2973,206.4624 C869.4512,208.2494 870.497,210.1124 871.444,212.0325 C871.5624,212.2726 869.0963,207.0979 869.2116,207.3397" fill="none" id="biz-to-infra" style="stroke:#1565C0;stroke-width:2;"/><polygon fill="#1565C0" points="871.7946,212.7552,871.5305,202.9099,869.6421,208.2423,864.3097,206.3539,871.7946,212.7552" style="stroke:#1565C0;stroke-width:2;"/><text fill="#000000" font-family="'Microsoft YaHei,Arial,sans-serif'" font-size="12" font-weight="700" lengthAdjust="spacing" textLength="72.0005" x="848" y="185.9437">&#32479;&#19968;&#25509;&#21475;&#35843;&#29992;</text></g><!--link infra to providers--><g class="link" data-entity-1="ent0010" data-entity-2="ent0021" data-link-type="dependency" data-source-line="78" id="lnk27"><path d="M879,322.4954 C879,323.6916 879,324.9014 879,326.1235 C879,328.5677 879,331.0611 879,333.594 C879,343.7256 879,354.4881 879,365.25 C879,370.6309 879,376.0117 879,381.3134 C879,381.9761 879,382.6376 879,383.2977 C879,383.6277 879,383.9574 879,384.2867 C879,384.4514 879,378.616 879,378.7805" fill="none" id="infra-to-providers" style="stroke:#1565C0;stroke-width:2;"/><polygon fill="#1565C0" points="879,384.7805,883,375.7805,879,379.7805,875,375.7805,879,384.7805" style="stroke:#1565C0;stroke-width:2;"/><text fill="#000000" font-family="'Microsoft YaHei,Arial,sans-serif'" font-size="12" font-weight="700" lengthAdjust="spacing" textLength="63.3869" x="880" y="358.0737">HTTP &#35843;&#29992;</text></g><!--link providers to GMN28--><g class="link" data-entity-1="ent0021" data-entity-2="ent0029" data-link-type="association" data-source-line="81" id="lnk30"><path d="M887.2372,464.1864 C887.4398,464.386 887.6455,464.5889 887.8545,464.7948 C889.5258,466.4422 891.3994,468.289 893.445,470.3053 C901.6275,478.3706 912.5625,489.1488 924.315,500.7325 C947.82,523.9 974.595,550.29 989.16,564.645" fill="none" id="providers-GMN28" style="stroke:#1565C0;stroke-width:2;stroke-dasharray:7,7;"/></g><?plantuml-src jLNVRnf747xdhrZXbnQ51h1nxCX2ujSraPAsCdwfcZuiiC2AunRj7RQQAf9ZOk8uTTmcn5LZ9zH9hJfLOkAgTLtREFzBnTx1a_-53dk0pn3wrdr1D_FDpBVVp0vwdcf5p7419N4gd-MifAMZJ6KSZIbX9Q94NNeVeUTmcYrGBOiCNY8EHvfaS4ar5AOPd-42GUwRDCMPpZ86-X9V8_HIc5EiNjAnfdjrmcd6_U7W1BrDa3_WSdXJh51a6j4CzAqBmOaCieoFAm4bPliOJnFUjVk3ay6eps6Voz5KNYEwZWBIsYdOnVfY4rV2_hxLfZ7kkkCaKeJ2E4j6qL3a-HzeJCZlXF6DIX0dAGDhMPLSfAOnuxzuJKSdXdafq-6fG72GGJ0suHk_Ci30Vx4QvfmjTCiDNz9vFGWpg06yPtH8TDK_6Pf9XcP1HEXc-3eIjIDhUx6rTsfkDCHAHUmlcIyEp1VtPYudGpENEo4Xbwidkxjv-4oiRWF8ZR2EalGsj7vA2SQdkrJE1yKjwd-twi_DhJK8aEXK3XjeB3eLdunE3uAjsawhNX57JynNYzOVBoK-dno5dWr_YjfFJbj_rIMGu-mef5W-Q1vlsAmbbXavmljeq4QsZTDipa0iqxaHf03gufSDS_txvkccTLnh7YwQZtR4-YjmVG87VZoU6pTk9WYVfodYyKX3l90awJIyoulcMSAnbZ-t4IqjHyKXAjKo77inHURkjdZ-e-GfRRrtDImkNDsgxhSN7vWFNziQi1BSOomIYSMLo92wbQgvyHQaDMixTYieJvMeCGflFbrkFzjgDTvOlnvBV0QhQcSpZGfeBwzPZRtswtsnkciNO5g6PljmYRSfUgNMtb2FWvsgowVlx1Ni5fB9RETNEPfE4-rh0Cc4mpsKqadjpPyFnVjogzmGgvko7TtkEUcYVogF4VHP75N5qufOhvlhZys7LK2rxly6VbixYUhA8issE1_g9Wp6UJufHf6pUGgFNfUBO3pk6-wdzTEfjNHoI_ieXlLS8iMAv6CPcePFlVFP2Otx8e6XmErbUC7cdtU14uGdg4f1BaLb2tO2tJQC2lzSLN41Gw2vzKPilMkNTwt6xtOaawvHWV2mn5uvV5qyMe9htjBEJbRi58mtZtve7gwUdJoGQUPLjT1F0htgx0ml_85fq41xoA_sDbCWvF4udrlhNTcgxdeylJLamtl1vwfUI71jRkuBD1XfJqYI6GOhT4R4qH5xVS7rd3DWbT-AbVlcsikpa-_wAmy6ghrvODwhmR9oFEH_0G00?></g></svg>