<svg xmlns="http://www.w3.org/2000/svg" xmlns:xlink="http://www.w3.org/1999/xlink" contentStyleType="text/css" data-diagram-type="CLASS" height="785px" preserveAspectRatio="none" style="width:1383px;height:785px;background:#F8F9FB;" version="1.1" viewBox="0 0 1383 785" width="1383px" zoomAndPan="magnify"><?plantuml 1.2026.3beta6?><defs><linearGradient id="g1j474u64o3efr0" x1="0%" x2="100%" y1="0%" y2="100%"><stop offset="0%" stop-color="#E3F2FD"/><stop offset="100%" stop-color="#F5F9FF"/></linearGradient><linearGradient id="g1j474u64o3efr1" x1="0%" x2="100%" y1="0%" y2="100%"><stop offset="0%" stop-color="#EDE7F6"/><stop offset="100%" stop-color="#F5F2FF"/></linearGradient><linearGradient id="g1j474u64o3efr2" x1="0%" x2="100%" y1="0%" y2="100%"><stop offset="0%" stop-color="#FFF3E0"/><stop offset="100%" stop-color="#FFFAF2"/></linearGradient></defs><g><rect fill="#F8F9FB" height="785" style="stroke:none;stroke-width:1;" width="1383" x="0" y="0"/><g class="title" data-source-line="58"><text fill="#263238" font-family="'Microsoft YaHei,Arial,sans-serif'" font-size="18" font-weight="700" lengthAdjust="spacing" textLength="246.0491" x="565.2817" y="26.708">Embedding &#23376;&#31995;&#32479;&#19977;&#23618;&#26550;&#26500;</text><text fill="#90A4AE" font-family="'Microsoft YaHei,Arial,sans-serif'" font-size="11" font-weight="700" lengthAdjust="spacing" textLength="209.7507" x="583.4308" y="41.1636">&#19994;&#21153;&#25277;&#35937;&#23618; &#8594; &#36335;&#30001;&#35843;&#24230;&#23618; &#8594; &#20379;&#24212;&#21830;&#23454;&#29616;&#23618;</text></g><!--cluster L1--><g class="cluster" data-qualified-name="L1" data-source-line="66" id="ent0002"><rect fill="url(#g1j474u64o3efr0)" height="167.79" rx="6" ry="6" style="stroke:#B0BEC5;stroke-width:2;" width="324" x="226" y="61.7578"/><text fill="#37474F" font-family="'Microsoft YaHei,Arial,sans-serif'" font-size="14" font-weight="700" lengthAdjust="spacing" textLength="143.5749" x="316.2126" y="76.7529">Layer 1 &#183; &#19994;&#21153;&#25277;&#35937;&#23618;</text></g><!--cluster L2--><g class="cluster" data-qualified-name="L2" data-source-line="80" id="ent0004"><rect fill="url(#g1j474u64o3efr1)" height="325.99" rx="6" ry="6" style="stroke:#B0BEC5;stroke-width:2;" width="551" x="7" y="253.5478"/><text fill="#37474F" font-family="'Microsoft YaHei,Arial,sans-serif'" font-size="14" font-weight="700" lengthAdjust="spacing" textLength="143.5749" x="210.7126" y="268.5429">Layer 2 &#183; &#36335;&#30001;&#35843;&#24230;&#23618;</text></g><!--cluster L3--><g class="cluster" data-qualified-name="L3" data-source-line="103" id="ent0008"><rect fill="url(#g1j474u64o3efr2)" height="329.02" rx="6" ry="6" style="stroke:#B0BEC5;stroke-width:2;" width="475" x="590" y="442.1478"/><text fill="#37474F" font-family="'Microsoft YaHei,Arial,sans-serif'" font-size="14" font-weight="700" lengthAdjust="spacing" textLength="157.5748" x="748.7126" y="457.1429">Layer 3 &#183; &#20379;&#24212;&#21830;&#23454;&#29616;&#23618;</text></g><!--class ES--><g class="entity" data-qualified-name="L1.ES" data-source-line="68" id="ent0003"><rect fill="#F1F1F1" height="116.7969" rx="5" ry="5" style="stroke:#181818;stroke-width:2;" width="292.2173" x="241.89" y="96.7578"/><rect fill="#ECEFF1" height="36.7734" rx="5" ry="5" style="stroke:#ECEFF1;stroke-width:2;" width="292.2173" x="241.89" y="96.7578"/><rect fill="#ECEFF1" height="5" style="stroke:#ECEFF1;stroke-width:2;" width="292.2173" x="241.89" y="128.5313"/><rect fill="none" height="116.7969" rx="5" ry="5" style="stroke:#181818;stroke-width:2;" width="292.2173" x="241.89" y="96.7578"/><ellipse cx="326.3668" cy="115.1445" fill="#1976D2" rx="10" ry="10" style="stroke:#181818;stroke-width:1;"/><path d="M323.3824,112.4258 L323.3824,110.8945 L328.5856,110.8945 L328.5856,112.4258 L326.8512,112.4258 L326.8512,118.1133 L328.5856,118.1133 L328.5856,119.6445 L323.3824,119.6445 L323.3824,118.1133 L325.1168,118.1133 L325.1168,112.4258 L323.3824,112.4258 Z " fill="#000000"/><text fill="#000000" font-family="Microsoft YaHei,Arial,sans-serif" font-size="12" font-style="italic" lengthAdjust="spacing" textLength="62.684" x="371.6567" y="112.8965">&#171;&#19994;&#21153;&#25509;&#21475;&#187;</text><text fill="#000000" font-family="'Microsoft YaHei,Arial,sans-serif'" font-size="11" font-style="italic" font-weight="700" lengthAdjust="spacing" textLength="115.2637" x="345.3668" y="125.937">EmbeddingService</text><line style="stroke:#181818;stroke-width:2;" x1="242.89" x2="533.1073" y1="133.5313" y2="133.5313"/><line style="stroke:#181818;stroke-width:2;" x1="242.89" x2="533.1073" y1="141.5313" y2="141.5313"/><g data-visibility-modifier="PUBLIC_METHOD"><ellipse cx="252.89" cy="153.4336" fill="#84BE84" rx="3" ry="3" style="stroke:#038048;stroke-width:1;"/></g><text fill="#000000" font-family="'Microsoft YaHei,Arial,sans-serif'" font-size="11" lengthAdjust="spacing" textLength="140.7334" x="260.89" y="155.7417">embed(text): List&lt;Float&gt;</text><g data-visibility-modifier="PUBLIC_METHOD"><ellipse cx="252.89" cy="166.2383" fill="#84BE84" rx="3" ry="3" style="stroke:#038048;stroke-width:1;"/></g><text fill="#000000" font-family="'Microsoft YaHei,Arial,sans-serif'" font-size="11" lengthAdjust="spacing" textLength="192.2046" x="260.89" y="168.5464">embed(text, modelId): List&lt;Float&gt;</text><g data-visibility-modifier="PUBLIC_METHOD"><ellipse cx="252.89" cy="179.043" fill="#84BE84" rx="3" ry="3" style="stroke:#038048;stroke-width:1;"/></g><text fill="#000000" font-family="'Microsoft YaHei,Arial,sans-serif'" font-size="11" lengthAdjust="spacing" textLength="215.7461" x="260.89" y="181.3511">embedBatch(texts): List&lt;List&lt;Float&gt;&gt;</text><g data-visibility-modifier="PUBLIC_METHOD"><ellipse cx="252.89" cy="191.8477" fill="#84BE84" rx="3" ry="3" style="stroke:#038048;stroke-width:1;"/></g><text fill="#000000" font-family="'Microsoft YaHei,Arial,sans-serif'" font-size="11" lengthAdjust="spacing" textLength="267.2173" x="260.89" y="194.1558">embedBatch(texts, modelId): List&lt;List&lt;Float&gt;&gt;</text><g data-visibility-modifier="PUBLIC_METHOD"><ellipse cx="252.89" cy="204.6523" fill="#84BE84" rx="3" ry="3" style="stroke:#038048;stroke-width:1;"/></g><text fill="#000000" font-family="'Microsoft YaHei,Arial,sans-serif'" font-size="11" lengthAdjust="spacing" textLength="87.1084" x="260.89" y="206.9604">dimension(): int</text></g><!--class RES--><g class="entity" data-qualified-name="L2.RES" data-source-line="82" id="ent0005"><rect fill="#F1F1F1" height="129.6016" rx="5" ry="5" style="stroke:#181818;stroke-width:2;" width="307.1274" x="234.44" y="288.5478"/><rect fill="#ECEFF1" height="36.7734" rx="5" ry="5" style="stroke:#ECEFF1;stroke-width:2;" width="307.1274" x="234.44" y="288.5478"/><rect fill="#ECEFF1" height="5" style="stroke:#ECEFF1;stroke-width:2;" width="307.1274" x="234.44" y="320.3212"/><rect fill="none" height="129.6016" rx="5" ry="5" style="stroke:#181818;stroke-width:2;" width="307.1274" x="234.44" y="288.5478"/><ellipse cx="302.0757" cy="306.9345" fill="#ADD1B2" rx="10" ry="10" style="stroke:#181818;stroke-width:1;"/><path d="M303.9039,311.1845 Q303.4976,311.3877 303.0445,311.497 Q302.5914,311.6064 302.107,311.6064 Q300.3257,311.6064 299.3882,310.4502 Q298.4664,309.2783 298.4664,307.0752 Q298.4664,304.8564 299.3882,303.7002 Q300.3257,302.5283 302.107,302.5283 Q302.5914,302.5283 303.0445,302.6377 Q303.5132,302.7314 303.9039,302.9502 L303.9039,304.872 Q303.4664,304.4658 303.0445,304.2783 Q302.6226,304.0752 302.1851,304.0752 Q301.232,304.0752 300.7476,304.8408 Q300.2632,305.5908 300.2632,307.0752 Q300.2632,308.5439 300.7476,309.2939 Q301.232,310.0439 302.1851,310.0439 Q302.6226,310.0439 303.0445,309.8564 Q303.4664,309.6689 303.9039,309.2627 L303.9039,311.1845 Z " fill="#000000"/><text fill="#000000" font-family="Microsoft YaHei,Arial,sans-serif" font-size="12" font-style="italic" lengthAdjust="spacing" textLength="133.4297" x="336.2889" y="304.6865">&#171;@Primary @Service&#187;</text><text fill="#000000" font-family="'Microsoft YaHei,Arial,sans-serif'" font-size="11" font-weight="700" lengthAdjust="spacing" textLength="163.856" x="321.0757" y="317.727">RoutingEmbeddingService</text><line style="stroke:#181818;stroke-width:2;" x1="235.44" x2="540.5674" y1="325.3212" y2="325.3212"/><g data-visibility-modifier="PRIVATE_FIELD"><rect fill="none" height="6" style="stroke:#C82930;stroke-width:1;" width="6" x="242.44" y="351.0283"/></g><text fill="#000000" font-family="'Microsoft YaHei,Arial,sans-serif'" font-size="11" lengthAdjust="spacing" textLength="132.8486" x="253.44" y="356.3364">selector : ModelSelector</text><g data-visibility-modifier="PRIVATE_FIELD"><rect fill="none" height="6" style="stroke:#C82930;stroke-width:1;" width="6" x="242.44" y="363.833"/></g><text fill="#000000" font-family="'Microsoft YaHei,Arial,sans-serif'" font-size="11" lengthAdjust="spacing" textLength="183.8364" x="253.44" y="369.1411">executor : ModelRoutingExecutor</text><g data-visibility-modifier="PRIVATE_FIELD"><rect fill="none" height="6" style="stroke:#C82930;stroke-width:1;" width="6" x="242.44" y="376.6377"/></g><text fill="#000000" font-family="'Microsoft YaHei,Arial,sans-serif'" font-size="11" lengthAdjust="spacing" textLength="282.1274" x="253.44" y="381.9458">clientsByProvider : Map&lt;String, EmbeddingClient&gt;</text><line style="stroke:#181818;stroke-width:1;" x1="235.44" x2="377.0038" y1="339.7236" y2="339.7236"/><text fill="#000000" font-family="'Microsoft YaHei,Arial,sans-serif'" font-size="11" lengthAdjust="spacing" textLength="21.9998" x="377.0038" y="343.0317">&#20381;&#36182;</text><line style="stroke:#181818;stroke-width:1;" x1="399.0036" x2="540.5674" y1="339.7236" y2="339.7236"/><text fill="#7B1FA2" font-family="'Microsoft YaHei,Arial,sans-serif'" font-size="11" lengthAdjust="spacing" textLength="186.4189" x="240.44" y="411.5551">&#20505;&#36873;&#27169;&#22411;&#36873;&#25321; &#8594; &#36335;&#30001;&#25191;&#34892; &#8594; &#22833;&#36133;&#22238;&#36864;</text><line style="stroke:#181818;stroke-width:1;" x1="235.44" x2="366.0039" y1="394.9423" y2="394.9423"/><line style="stroke:#181818;stroke-width:1;" x1="235.44" x2="366.0039" y1="396.9423" y2="396.9423"/><text fill="#000000" font-family="'Microsoft YaHei,Arial,sans-serif'" font-size="11" lengthAdjust="spacing" textLength="43.9997" x="366.0039" y="398.2504">&#26680;&#24515;&#32844;&#36131;</text><line style="stroke:#181818;stroke-width:1;" x1="410.0036" x2="540.5674" y1="394.9423" y2="394.9423"/><line style="stroke:#181818;stroke-width:1;" x1="410.0036" x2="540.5674" y1="396.9423" y2="396.9423"/></g><!--class MS--><g class="entity" data-qualified-name="L2.MS" data-source-line="91" id="ent0006"><rect fill="#F1F1F1" height="65.5781" rx="5" ry="5" style="stroke:#181818;stroke-width:2;" width="242.1694" x="22.92" y="497.9578"/><rect fill="#ECEFF1" height="36.7734" rx="5" ry="5" style="stroke:#ECEFF1;stroke-width:2;" width="242.1694" x="22.92" y="497.9578"/><rect fill="#ECEFF1" height="5" style="stroke:#ECEFF1;stroke-width:2;" width="242.1694" x="22.92" y="529.7313"/><rect fill="none" height="65.5781" rx="5" ry="5" style="stroke:#181818;stroke-width:2;" width="242.1694" x="22.92" y="497.9578"/><ellipse cx="95.5133" cy="516.3445" fill="#ADD1B2" rx="10" ry="10" style="stroke:#181818;stroke-width:1;"/><path d="M97.3414,520.5945 Q96.9351,520.7977 96.482,520.907 Q96.0289,521.0164 95.5445,521.0164 Q93.7633,521.0164 92.8258,519.8602 Q91.9039,518.6883 91.9039,516.4852 Q91.9039,514.2664 92.8258,513.1102 Q93.7633,511.9383 95.5445,511.9383 Q96.0289,511.9383 96.482,512.0477 Q96.9508,512.1414 97.3414,512.3602 L97.3414,514.282 Q96.9039,513.8758 96.482,513.6883 Q96.0601,513.4852 95.6226,513.4852 Q94.6695,513.4852 94.1851,514.2508 Q93.7008,515.0008 93.7008,516.4852 Q93.7008,517.9539 94.1851,518.7039 Q94.6695,519.4539 95.6226,519.4539 Q96.0601,519.4539 96.482,519.2664 Q96.9039,519.0789 97.3414,518.6727 L97.3414,520.5945 Z " fill="#000000"/><text fill="#000000" font-family="Microsoft YaHei,Arial,sans-serif" font-size="12" font-style="italic" lengthAdjust="spacing" textLength="62.684" x="127.6627" y="514.0965">&#171;&#31574;&#30053;&#32452;&#20214;&#187;</text><text fill="#000000" font-family="'Microsoft YaHei,Arial,sans-serif'" font-size="11" font-weight="700" lengthAdjust="spacing" textLength="88.9829" x="114.5133" y="527.137">ModelSelector</text><line style="stroke:#181818;stroke-width:2;" x1="23.92" x2="264.0894" y1="534.7313" y2="534.7313"/><line style="stroke:#181818;stroke-width:2;" x1="23.92" x2="264.0894" y1="542.7313" y2="542.7313"/><g data-visibility-modifier="PUBLIC_METHOD"><ellipse cx="33.92" cy="554.6336" fill="#84BE84" rx="3" ry="3" style="stroke:#038048;stroke-width:1;"/></g><text fill="#000000" font-family="'Microsoft YaHei,Arial,sans-serif'" font-size="11" lengthAdjust="spacing" textLength="217.1694" x="41.92" y="556.9417">selectCandidates(): List&lt;ModelTarget&gt;</text></g><!--class MRE--><g class="entity" data-qualified-name="L2.MRE" data-source-line="95" id="ent0007"><rect fill="#F1F1F1" height="65.5781" rx="5" ry="5" style="stroke:#181818;stroke-width:2;" width="241.2832" x="300.36" y="497.9578"/><rect fill="#ECEFF1" height="36.7734" rx="5" ry="5" style="stroke:#ECEFF1;stroke-width:2;" width="241.2832" x="300.36" y="497.9578"/><rect fill="#ECEFF1" height="5" style="stroke:#ECEFF1;stroke-width:2;" width="241.2832" x="300.36" y="529.7313"/><rect fill="none" height="65.5781" rx="5" ry="5" style="stroke:#181818;stroke-width:2;" width="241.2832" x="300.36" y="497.9578"/><ellipse cx="346.5704" cy="516.3445" fill="#ADD1B2" rx="10" ry="10" style="stroke:#181818;stroke-width:1;"/><path d="M348.3986,520.5945 Q347.9923,520.7977 347.5392,520.907 Q347.0861,521.0164 346.6017,521.0164 Q344.8204,521.0164 343.8829,519.8602 Q342.9611,518.6883 342.9611,516.4852 Q342.9611,514.2664 343.8829,513.1102 Q344.8204,511.9383 346.6017,511.9383 Q347.0861,511.9383 347.5392,512.0477 Q348.0079,512.1414 348.3986,512.3602 L348.3986,514.282 Q347.9611,513.8758 347.5392,513.6883 Q347.1173,513.4852 346.6798,513.4852 Q345.7267,513.4852 345.2423,514.2508 Q344.7579,515.0008 344.7579,516.4852 Q344.7579,517.9539 345.2423,518.7039 Q345.7267,519.4539 346.6798,519.4539 Q347.1173,519.4539 347.5392,519.2664 Q347.9611,519.0789 348.3986,518.6727 L348.3986,520.5945 Z " fill="#000000"/><text fill="#000000" font-family="Microsoft YaHei,Arial,sans-serif" font-size="12" font-style="italic" lengthAdjust="spacing" textLength="62.684" x="404.6596" y="514.0965">&#171;&#25191;&#34892;&#24341;&#25806;&#187;</text><text fill="#000000" font-family="'Microsoft YaHei,Arial,sans-serif'" font-size="11" font-weight="700" lengthAdjust="spacing" textLength="140.8623" x="365.5704" y="527.137">ModelRoutingExecutor</text><line style="stroke:#181818;stroke-width:2;" x1="301.36" x2="540.6432" y1="534.7313" y2="534.7313"/><line style="stroke:#181818;stroke-width:2;" x1="301.36" x2="540.6432" y1="542.7313" y2="542.7313"/><g data-visibility-modifier="PUBLIC_METHOD"><ellipse cx="311.36" cy="554.6336" fill="#84BE84" rx="3" ry="3" style="stroke:#038048;stroke-width:1;"/></g><text fill="#000000" font-family="'Microsoft YaHei,Arial,sans-serif'" font-size="11" lengthAdjust="spacing" textLength="216.2832" x="319.36" y="556.9417">executeWithFallback(fn, candidates): R</text></g><!--class EC--><g class="entity" data-qualified-name="L3.EC" data-source-line="105" id="ent0009"><rect fill="#F1F1F1" height="91.1875" rx="5" ry="5" style="stroke:#181818;stroke-width:2;" width="281.3784" x="614.31" y="485.1478"/><rect fill="#ECEFF1" height="36.7734" rx="5" ry="5" style="stroke:#ECEFF1;stroke-width:2;" width="281.3784" x="614.31" y="485.1478"/><rect fill="#ECEFF1" height="5" style="stroke:#ECEFF1;stroke-width:2;" width="281.3784" x="614.31" y="516.9213"/><rect fill="none" height="91.1875" rx="5" ry="5" style="stroke:#181818;stroke-width:2;" width="281.3784" x="614.31" y="485.1478"/><ellipse cx="698.1503" cy="503.5345" fill="#F57C00" rx="10" ry="10" style="stroke:#181818;stroke-width:1;"/><path d="M695.166,500.8158 L695.166,499.2845 L700.3691,499.2845 L700.3691,500.8158 L698.6347,500.8158 L698.6347,506.5033 L700.3691,506.5033 L700.3691,508.0345 L695.166,508.0345 L695.166,506.5033 L696.9003,506.5033 L696.9003,500.8158 L695.166,500.8158 Z " fill="#000000"/><text fill="#000000" font-family="Microsoft YaHei,Arial,sans-serif" font-size="12" font-style="italic" lengthAdjust="spacing" textLength="74.6841" x="732.6572" y="501.2865">&#171;&#20379;&#24212;&#21830;&#25509;&#21475;&#187;</text><text fill="#000000" font-family="'Microsoft YaHei,Arial,sans-serif'" font-size="11" font-style="italic" font-weight="700" lengthAdjust="spacing" textLength="105.6978" x="717.1503" y="514.327">EmbeddingClient</text><line style="stroke:#181818;stroke-width:2;" x1="615.31" x2="894.6884" y1="521.9213" y2="521.9213"/><line style="stroke:#181818;stroke-width:2;" x1="615.31" x2="894.6884" y1="529.9213" y2="529.9213"/><g data-visibility-modifier="PUBLIC_METHOD"><ellipse cx="625.31" cy="541.8236" fill="#84BE84" rx="3" ry="3" style="stroke:#038048;stroke-width:1;"/></g><text fill="#000000" font-family="'Microsoft YaHei,Arial,sans-serif'" font-size="11" lengthAdjust="spacing" textLength="94.687" x="633.31" y="544.1317">provider(): String</text><g data-visibility-modifier="PUBLIC_METHOD"><ellipse cx="625.31" cy="554.6283" fill="#84BE84" rx="3" ry="3" style="stroke:#038048;stroke-width:1;"/></g><text fill="#000000" font-family="'Microsoft YaHei,Arial,sans-serif'" font-size="11" lengthAdjust="spacing" textLength="181.3657" x="633.31" y="556.9364">embed(text, target): List&lt;Float&gt;</text><g data-visibility-modifier="PUBLIC_METHOD"><ellipse cx="625.31" cy="567.433" fill="#84BE84" rx="3" ry="3" style="stroke:#038048;stroke-width:1;"/></g><text fill="#000000" font-family="'Microsoft YaHei,Arial,sans-serif'" font-size="11" lengthAdjust="spacing" textLength="256.3784" x="633.31" y="569.7411">embedBatch(texts, target): List&lt;List&lt;Float&gt;&gt;</text></g><!--class OEC--><g class="entity" data-qualified-name="L3.OEC" data-source-line="111" id="ent0010"><rect fill="#E8F5E9" height="98.0234" rx="5" ry="5" style="stroke:#181818;stroke-width:2;" width="178.8975" x="613.55" y="642.7378"/><ellipse cx="627.55" cy="661.1245" fill="#ADD1B2" rx="10" ry="10" style="stroke:#181818;stroke-width:1;"/><path d="M629.3781,665.3745 Q628.9719,665.5777 628.5188,665.687 Q628.0656,665.7964 627.5813,665.7964 Q625.8,665.7964 624.8625,664.6402 Q623.9406,663.4683 623.9406,661.2652 Q623.9406,659.0464 624.8625,657.8902 Q625.8,656.7183 627.5813,656.7183 Q628.0656,656.7183 628.5188,656.8277 Q628.9875,656.9214 629.3781,657.1402 L629.3781,659.062 Q628.9406,658.6558 628.5188,658.4683 Q628.0969,658.2652 627.6594,658.2652 Q626.7063,658.2652 626.2219,659.0308 Q625.7375,659.7808 625.7375,661.2652 Q625.7375,662.7339 626.2219,663.4839 Q626.7063,664.2339 627.6594,664.2339 Q628.0969,664.2339 628.5188,664.0464 Q628.9406,663.8589 629.3781,663.4527 L629.3781,665.3745 Z " fill="#000000"/><text fill="#000000" font-family="Microsoft YaHei,Arial,sans-serif" font-size="12" font-style="italic" lengthAdjust="spacing" textLength="71.0332" x="679.4821" y="658.8765">&#171;@Service&#187;</text><text fill="#000000" font-family="'Microsoft YaHei,Arial,sans-serif'" font-size="11" font-weight="700" lengthAdjust="spacing" textLength="148.8975" x="640.55" y="671.917">OllamaEmbeddingClient</text><line style="stroke:#181818;stroke-width:2;" x1="614.55" x2="791.4475" y1="679.5112" y2="679.5112"/><g data-visibility-modifier="PRIVATE_FIELD"><rect fill="none" height="6" style="stroke:#C82930;stroke-width:1;" width="6" x="621.55" y="688.4136"/></g><text fill="#000000" font-family="'Microsoft YaHei,Arial,sans-serif'" font-size="11" lengthAdjust="spacing" textLength="135.8779" x="632.55" y="693.7217">httpClient : OkHttpClient</text><line style="stroke:#181818;stroke-width:1;" x1="614.55" x2="791.4475" y1="700.3159" y2="700.3159"/><g data-visibility-modifier="PRIVATE_METHOD"><rect fill="#F24D5C" height="6" style="stroke:#C82930;stroke-width:1;" width="6" x="621.55" y="709.2183"/></g><text fill="#000000" font-family="'Microsoft YaHei,Arial,sans-serif'" font-size="11" lengthAdjust="spacing" textLength="128.96" x="632.55" y="714.5264">doEmbed(texts, target)</text><line style="stroke:#181818;stroke-width:1;stroke-dasharray:1,2;" x1="614.55" x2="791.4475" y1="721.1206" y2="721.1206"/><text fill="#2E7D32" font-family="'Microsoft YaHei,Arial,sans-serif'" font-size="10" lengthAdjust="spacing" textLength="79.536" x="619.55" y="734.4029">&#26412;&#22320;&#37096;&#32626; &#183; &#20302;&#24310;&#36831;</text></g><!--class SEC--><g class="entity" data-qualified-name="L3.SEC" data-source-line="119" id="ent0011"><rect fill="#E8F5E9" height="110.8281" rx="5" ry="5" style="stroke:#181818;stroke-width:2;" width="205.8442" x="827.08" y="636.3378"/><ellipse cx="841.08" cy="654.7245" fill="#ADD1B2" rx="10" ry="10" style="stroke:#181818;stroke-width:1;"/><path d="M842.9081,658.9745 Q842.5019,659.1777 842.0488,659.287 Q841.5956,659.3964 841.1113,659.3964 Q839.33,659.3964 838.3925,658.2402 Q837.4706,657.0683 837.4706,654.8652 Q837.4706,652.6464 838.3925,651.4902 Q839.33,650.3183 841.1113,650.3183 Q841.5956,650.3183 842.0488,650.4277 Q842.5175,650.5214 842.9081,650.7402 L842.9081,652.662 Q842.4706,652.2558 842.0488,652.0683 Q841.6269,651.8652 841.1894,651.8652 Q840.2363,651.8652 839.7519,652.6308 Q839.2675,653.3808 839.2675,654.8652 Q839.2675,656.3339 839.7519,657.0839 Q840.2363,657.8339 841.1894,657.8339 Q841.6269,657.8339 842.0488,657.6464 Q842.4706,657.4589 842.9081,657.0527 L842.9081,658.9745 Z " fill="#000000"/><text fill="#000000" font-family="Microsoft YaHei,Arial,sans-serif" font-size="12" font-style="italic" lengthAdjust="spacing" textLength="71.0332" x="906.4855" y="652.4765">&#171;@Service&#187;</text><text fill="#000000" font-family="'Microsoft YaHei,Arial,sans-serif'" font-size="11" font-weight="700" lengthAdjust="spacing" textLength="175.8442" x="854.08" y="665.517">SiliconFlowEmbeddingClient</text><line style="stroke:#181818;stroke-width:2;" x1="828.08" x2="1031.9242" y1="673.1112" y2="673.1112"/><g data-visibility-modifier="PRIVATE_FIELD"><rect fill="none" height="6" style="stroke:#C82930;stroke-width:1;" width="6" x="835.08" y="682.0136"/></g><text fill="#000000" font-family="'Microsoft YaHei,Arial,sans-serif'" font-size="11" lengthAdjust="spacing" textLength="135.8779" x="846.08" y="687.3217">httpClient : OkHttpClient</text><g data-visibility-modifier="PRIVATE_FIELD"><rect fill="none" height="6" style="stroke:#C82930;stroke-width:1;" width="6" x="835.08" y="694.8183"/></g><text fill="#000000" font-family="'Microsoft YaHei,Arial,sans-serif'" font-size="11" lengthAdjust="spacing" textLength="110.8325" x="846.08" y="700.1264">maxBatch : int = 32</text><line style="stroke:#181818;stroke-width:1;" x1="828.08" x2="1031.9242" y1="706.7206" y2="706.7206"/><g data-visibility-modifier="PRIVATE_METHOD"><rect fill="#F24D5C" height="6" style="stroke:#C82930;stroke-width:1;" width="6" x="835.08" y="715.623"/></g><text fill="#000000" font-family="'Microsoft YaHei,Arial,sans-serif'" font-size="11" lengthAdjust="spacing" textLength="154.4297" x="846.08" y="720.9311">doEmbedOnce(slice, target)</text><line style="stroke:#181818;stroke-width:1;stroke-dasharray:1,2;" x1="828.08" x2="1031.9242" y1="727.5253" y2="727.5253"/><text fill="#2E7D32" font-family="'Microsoft YaHei,Arial,sans-serif'" font-size="10" lengthAdjust="spacing" textLength="88.5351" x="833.08" y="740.8075">&#20113;&#31471; API &#183; &#33258;&#21160;&#20998;&#29255;</text></g><g class="entity" data-qualified-name="GMN18" data-source-line="145" id="ent0019"><path d="M569.5,123.7178 L569.5,151.1678 L534.31,155.1678 L569.5,159.1678 L569.5,186.5772 A5,5 0 0 0 574.5,191.5772 L739.5,191.5772 A5,5 0 0 0 744.5,186.5772 L744.5,128.7178 L734.5,118.7178 L574.5,118.7178 A5,5 0 0 0 569.5,123.7178" fill="#FFFFFF" style="stroke:#CFD8DC;stroke-width:1;"/><path d="M734.5,118.7178 L734.5,126.2178 A2.5,2.5 0 0 0 737,128.7178 L744.5,128.7178 L734.5,118.7178" fill="#FFFFFF" style="stroke:#CFD8DC;stroke-width:1;"/><text fill="#1976D2" font-family="'Microsoft YaHei,Arial,sans-serif'" font-size="11" font-weight="700" lengthAdjust="spacing" textLength="65.9995" x="575.5" y="133.9283">&#23545;&#22806;&#32479;&#19968;&#22865;&#32422;</text><text fill="#37474F" font-family="'Microsoft YaHei,Arial,sans-serif'" font-size="11" lengthAdjust="spacing" textLength="154" x="575.5" y="146.7329">&#8212;&#8212;&#8212;&#8212;&#8212;&#8212;&#8212;&#8212;&#8212;&#8212;&#8212;&#8212;&#8212;&#8212;</text><text fill="#37474F" font-family="'Microsoft YaHei,Arial,sans-serif'" font-size="11" lengthAdjust="spacing" textLength="109.9992" x="575.5" y="159.5376">&#19978;&#23618;&#19994;&#21153;&#21482;&#20381;&#36182;&#27492;&#25509;&#21475;</text><text fill="#37474F" font-family="'Microsoft YaHei,Arial,sans-serif'" font-size="11" lengthAdjust="spacing" textLength="98.9993" x="575.5" y="172.3423">&#23436;&#20840;&#23631;&#34109;&#20379;&#24212;&#21830;&#24046;&#24322;</text><text fill="#90A4AE" font-family="'Microsoft YaHei,Arial,sans-serif'" font-size="10" lengthAdjust="spacing" textLength="109.453" x="575.5" y="184.2188">&#21333;&#25991;&#26412; / &#25209;&#37327; / &#25351;&#23450;&#27169;&#22411;</text></g><g class="entity" data-qualified-name="GMN21" data-source-line="153" id="ent0022"><path d="M576.82,315.5178 L576.82,350.1678 L541.7,354.1678 L576.82,358.1678 L576.82,391.1819 A5,5 0 0 0 581.82,396.1819 L778.1815,396.1819 A5,5 0 0 0 783.1815,391.1819 L783.1815,320.5178 L773.1815,310.5178 L581.82,310.5178 A5,5 0 0 0 576.82,315.5178" fill="#FFFFFF" style="stroke:#CFD8DC;stroke-width:1;"/><path d="M773.1815,310.5178 L773.1815,318.0178 A2.5,2.5 0 0 0 775.6815,320.5178 L783.1815,320.5178 L773.1815,310.5178" fill="#FFFFFF" style="stroke:#CFD8DC;stroke-width:1;"/><text fill="#7B1FA2" font-family="'Microsoft YaHei,Arial,sans-serif'" font-size="11" font-weight="700" lengthAdjust="spacing" textLength="54.9996" x="582.82" y="325.7283">&#26680;&#24515;&#35843;&#24230;&#22120;</text><text fill="#37474F" font-family="'Microsoft YaHei,Arial,sans-serif'" font-size="11" lengthAdjust="spacing" textLength="154" x="582.82" y="338.5329">&#8212;&#8212;&#8212;&#8212;&#8212;&#8212;&#8212;&#8212;&#8212;&#8212;&#8212;&#8212;&#8212;&#8212;</text><text fill="#37474F" font-family="'Microsoft YaHei,Arial,sans-serif'" font-size="11" lengthAdjust="spacing" textLength="161.0679" x="582.82" y="351.3376">&#9312; ModelSelector &#36873;&#20986;&#20505;&#36873;&#21015;&#34920;</text><text fill="#37474F" font-family="'Microsoft YaHei,Arial,sans-serif'" font-size="11" lengthAdjust="spacing" textLength="185.3615" x="582.82" y="364.1423">&#9313; ModelRoutingExecutor &#20381;&#27425;&#23581;&#35797;</text><text fill="#37474F" font-family="'Microsoft YaHei,Arial,sans-serif'" font-size="11" lengthAdjust="spacing" textLength="169.7204" x="582.82" y="376.947">&#9314; &#39318;&#20010;&#25104;&#21151;&#21363;&#36820;&#22238;&#65292;&#21542;&#21017; fallback</text><text fill="#90A4AE" font-family="'Microsoft YaHei,Arial,sans-serif'" font-size="10" lengthAdjust="spacing" textLength="111.997" x="582.82" y="388.8235">@Primary &#20445;&#35777;&#20248;&#20808;&#27880;&#20837;</text></g><g class="entity" data-qualified-name="GMN24" data-source-line="162" id="ent0025"><path d="M1089.38,660.3278 L1089.38,723.1872 A5,5 0 0 0 1094.38,728.1872 L1363.6124,728.1872 A5,5 0 0 0 1368.6124,723.1872 L1368.6124,665.3278 L1358.6124,655.3278 L1094.38,655.3278 A5,5 0 0 0 1089.38,660.3278" fill="#FFFFFF" style="stroke:#CFD8DC;stroke-width:1;"/><path d="M1358.6124,655.3278 L1358.6124,662.8278 A2.5,2.5 0 0 0 1361.1124,665.3278 L1368.6124,665.3278 L1358.6124,655.3278" fill="#FFFFFF" style="stroke:#CFD8DC;stroke-width:1;"/><text fill="#E65100" font-family="'Microsoft YaHei,Arial,sans-serif'" font-size="11" font-weight="700" lengthAdjust="spacing" textLength="65.9995" x="1095.38" y="670.5383">&#21487;&#25554;&#25300;&#20379;&#24212;&#21830;</text><text fill="#37474F" font-family="'Microsoft YaHei,Arial,sans-serif'" font-size="11" lengthAdjust="spacing" textLength="154" x="1095.38" y="683.3429">&#8212;&#8212;&#8212;&#8212;&#8212;&#8212;&#8212;&#8212;&#8212;&#8212;&#8212;&#8212;&#8212;&#8212;</text><text fill="#37474F" font-family="'Microsoft YaHei,Arial,sans-serif'" font-size="11" lengthAdjust="spacing" textLength="196.7317" x="1095.38" y="696.1476">&#26032;&#22686;&#20379;&#24212;&#21830;&#21482;&#38656;&#23454;&#29616; EmbeddingClient</text><text fill="#37474F" font-family="'Microsoft YaHei,Arial,sans-serif'" font-size="11" lengthAdjust="spacing" textLength="174.4898" x="1095.38" y="708.9523">&#27880;&#20876;&#21040; Spring &#23481;&#22120;&#21363;&#33258;&#21160;&#32435;&#20837;&#36335;&#30001;</text><text fill="#90A4AE" font-family="'Microsoft YaHei,Arial,sans-serif'" font-size="10" lengthAdjust="spacing" textLength="258.2324" x="1095.38" y="720.8288">&#24403;&#21069;: Ollama / SiliconFlow | &#25193;&#23637;: OpenAI / Cohere ...</text></g><!--reverse link ES to RES--><g class="link" data-entity-1="ent0003" data-entity-2="ent0005" data-link-type="extension" data-source-line="132" id="lnk12"><path codeLine="132" d="M388,231.8178 C388,255.2178 388,264.2478 388,288.2478" fill="none" id="ES-backto-RES" style="stroke:#1976D2;stroke-width:2;"/><polygon fill="none" points="388,213.8178,382,231.8178,394,231.8178,388,213.8178" style="stroke:#1976D2;stroke-width:2;"/><text fill="#1976D2" font-family="'Microsoft YaHei,Arial,sans-serif'" font-size="10" font-weight="700" lengthAdjust="spacing" textLength="66.2695" x="321" y="248.31">implements</text></g><!--link RES to MS--><g class="link" data-entity-1="ent0005" data-entity-2="ent0006" data-link-type="dependency" data-source-line="134" id="lnk13"><path codeLine="134" d="M249.76,418.6478 C249.76,445.5178 249.76,469.4778 249.76,491.6578" fill="none" id="RES-to-MS" style="stroke:#7B1FA2;stroke-width:2;"/><polygon fill="#7B1FA2" points="249.76,497.6578,253.76,488.6578,249.76,492.6578,245.76,488.6578,249.76,497.6578" style="stroke:#7B1FA2;stroke-width:2;"/><text fill="#7B1FA2" font-family="'Microsoft YaHei,Arial,sans-serif'" font-size="10" lengthAdjust="spacing" textLength="49.9999" x="199.76" y="455.44">&#36873;&#20505;&#36873;&#27169;&#22411;</text></g><!--link RES to MRE--><g class="link" data-entity-1="ent0005" data-entity-2="ent0007" data-link-type="dependency" data-source-line="135" id="lnk14"><path codeLine="135" d="M420.96,418.6478 C420.96,445.5178 420.96,469.4778 420.96,491.6578" fill="none" id="RES-to-MRE" style="stroke:#7B1FA2;stroke-width:2;"/><polygon fill="#7B1FA2" points="420.96,497.6578,424.96,488.6578,420.96,492.6578,416.96,488.6578,420.96,497.6578" style="stroke:#7B1FA2;stroke-width:2;"/><text fill="#7B1FA2" font-family="'Microsoft YaHei,Arial,sans-serif'" font-size="10" lengthAdjust="spacing" textLength="49.9999" x="370.96" y="455.44">&#24102;&#22238;&#36864;&#25191;&#34892;</text></g><!--link RES to EC--><g class="link" data-entity-1="ent0005" data-entity-2="ent0009" data-link-type="dependency" data-source-line="136" id="lnk15"><path codeLine="136" d="M542.01,407.1678 C620.15,407.1678 698.75,407.1678 698.75,407.1678 C698.75,407.1678 698.75,443.5978 698.75,478.7278" fill="none" id="RES-to-EC" style="stroke:#546E7A;stroke-width:2;stroke-dasharray:7,7;"/><polygon fill="#546E7A" points="698.75,484.7278,702.75,475.7278,698.75,479.7278,694.75,475.7278,698.75,484.7278" style="stroke:#546E7A;stroke-width:2;"/><text fill="#546E7A" font-family="'Microsoft YaHei,Arial,sans-serif'" font-size="10" lengthAdjust="spacing" textLength="113.5693" x="545.16" y="417.45">Map&lt;provider, client&gt;</text><text fill="#000000" font-family="'Microsoft YaHei,Arial,sans-serif'" font-size="10" lengthAdjust="spacing" textLength="59.9999" x="571.9447" y="429.0907">&#25353;&#20379;&#24212;&#21830;&#36335;&#30001;</text></g><!--reverse link EC to OEC--><g class="link" data-entity-1="ent0009" data-entity-2="ent0010" data-link-type="extension" data-source-line="138" id="lnk16"><path codeLine="138" d="M703.38,594.4578 C703.38,614.9978 703.38,621.2878 703.38,642.2678" fill="none" id="EC-backto-OEC" style="stroke:#F57C00;stroke-width:2;"/><polygon fill="none" points="703.38,576.4578,697.38,594.4578,709.38,594.4578,703.38,576.4578" style="stroke:#F57C00;stroke-width:2;"/><text fill="#F57C00" font-family="'Microsoft YaHei,Arial,sans-serif'" font-size="10" font-weight="700" lengthAdjust="spacing" textLength="66.2695" x="636.38" y="606.64">implements</text></g><!--reverse link EC to SEC--><g class="link" data-entity-1="ent0009" data-entity-2="ent0011" data-link-type="extension" data-source-line="139" id="lnk17"><path codeLine="139" d="M861.38,594.4578 C861.38,612.9578 861.38,616.4878 861.38,635.9078" fill="none" id="EC-backto-SEC" style="stroke:#F57C00;stroke-width:2;"/><polygon fill="none" points="861.38,576.4578,855.38,594.4578,867.38,594.4578,861.38,576.4578" style="stroke:#F57C00;stroke-width:2;"/><text fill="#F57C00" font-family="'Microsoft YaHei,Arial,sans-serif'" font-size="10" font-weight="700" lengthAdjust="spacing" textLength="66.2695" x="794.38" y="603.46">implements</text></g><!--link L3 to GMN24--><g class="link" data-entity-1="ent0008" data-entity-2="ent0025" data-link-type="association" data-source-line="162" id="lnk26"><path d="M1065.1086,692.1678 C1065.193,692.1678 1065.2779,692.1678 1065.3635,692.1678 C1065.5346,692.1678 1065.708,692.1678 1065.8838,692.1678 C1071.5075,692.1678 1079.495,692.1678 1088.95,692.1678" fill="none" id="L3-GMN24" style="stroke:#546E7A;stroke-width:2;stroke-dasharray:7,7;"/></g><?plantuml-src pLZhJzjM5F-Ul-8AFfHgF1872A0GDOHOHQAZ8fMcgTi7aro8XMD7jcdBsahq0G5AWRR0-gIbBOnsBO_HjPJ7aFQde5md-RH_OVVXn8uJicwT15QasFUUUtpExvvpVkVw53YSdpt6d-iK06Xq5MsEv5vD6o_syFCn6wGDYd9IK8K4w1EYWmEgCYJ7GegagA2QR-5R-GwRX1ONOifbKHu0_OAaGTjC3FOBGvBEAxB-hP20eEgS65KLJUdNmVV2MIZM1bLHa6erGTRgDAYA_LNb5qV4do3mSBR9NcQGAaCLUDosYMvHXlfm4W95rUEAopQJn8u80n1STG5yTJZSqbLi11Q4iixc5JK6LTFb3dT7EDH4norp6grdVLY2e4-HOeKXSw7Nr-Xhv6qAByJ5wA0CDGrmT9GjLM5K5-G12TAn8jyurtMx4wAiGxLVY1xbHdNOotDyPwaBdbPVSoVdjC_TsUWBUXoESKSvLkf2aMrHIS23Lyjg2-gwAlODwT2Qy5I0vImKy6YfSw4mptlAcLTaYApeH-B3qwiKdn3VsT8Pgh1_JiFjkzHIrXKc5t5aHv6bWgegbqiWSzDdquIcnkQmBqX77CYVEW5LotYHohryUFocwA9EiyVVZr446eQntTC2eWJ2zcgksSjvMmB-la0uqGTZCR8PwFriPciti_iylJs1DcyQYn-DnTl-Xhw0lu6e23XqUVAwMjt1nc0uaDv-Z2QNZCdzxEOINWuEn-w3xAVrpDncTkCMsbd9ZwN_U89svj3y65fRp4nluE6yVYZ70BFwH6najp1CoWqu79a33kUEtxvywQxAM_dd9wUHLK3GGBSdNm0R-2RCKZnEBPevLjciAeH01AgNn2Ya2yCHuFU3cgvQiqwUpgkVNaOphq0WOEOekRw1H4ED3g_efzimtsYwdvSKWOPCYKGjI2WnA7N5Aefs27eqJkMrl9nDk89qYVhoos9Y0igQgCWrM4uq6UxwIQaXR5Cv6dgE73fneSUHq7COoKAFmw7N6VRnpIJqE2lq62jMORhGST2LZRvU5dvdpgjYGb27mHbpiZZkwkfmDNcM_Nq1trc36fHmyu29eWsS8w4GCPyj2NW5HeTi4dbBp65BC2g9kFlHEeRFgyeb4LCPMI4a_H5CtV90BIZO7gA2LdorjsCUs4O7jx8tfh8VNk7dmfIVbissQb-7Xmzo0JJoA3SoOQmkeSKxvERE6rlbD2P-oIvDqG7qUZFxOHazMSoDZFWRg8w06RHsK8iyfb2UeqXctYzavfSpkxVJknyToSlm2WboJ8m9EjHgyfb3TLqGr06e7_ag1tJiZRrXyafcFDgRDnvCE-i55OVVYNgS5oI9DDGr_N8jY1QCm3RqdiISz38wAE6m4vUMNie89NQopFJIhiyRTZVWlo3FLI855jgC4q9vJk2RV26t-xJrWhAqa3IpXaGKIvdoXA3J6FjIFd3AbnJuuZ3jaIGX8PHpfuVvOwyjrU4MlYdSQgynSLrFiaKu-Ni6pnOURMN8keqfuO9ZbgM5-VhwaZh0XNsTNYxW9rrLcySTC9w-GqytShTMC_k_qJtSdqQx7xC7p_qDH2HG8VaZeYH65HbZSRcSlv7_oz-4S8Nk1w3K2Tg1bwi4HeySXJKQDWt-9q3IE_Solww3uFakoZIfjsXo5OsFPIPIvH4v8VK2ZMxXTZfxi9ZPEJX-WmYVNgkllsXsSxNaYFWZfTcs0l1iYXmAn4HIWWb2VQp_D_5r4VcwYoPrCHtu92VN1GZBj3cf3TEPdTqAQYfemSnHeWPjhp3QOuHIf0Oxn4w3jJ51YqEcg3v0AfMbXqbO0KKOF5-QCESmwdR4qW-oCJLHg6wCZLqkaa0KHLR_J1HxYjx6fYgWM5v9vDyfEHb7tQtLN6ho-4sXNpTKSI2k0wKVdrp8IHLZLHpMQFqpUhr0ZxSZQFbUPcSb3oO15Y_1nFw5FooStfx4RCgEH6ZcBMj3ZVUl6GzY0RGsHRzVpcJdzYqQ_hI6zcwwh5fddfqBeOdkpXiBAKm1e07tJvzpgHboCvL2Qu_pILHSyiYPcRZlSe3GwqJ1J2QpAsMD-gFLhu7WyDwBuWORa8HFxR2SH-C_PvTMgTXIsIwRjEx6koMqyIoxFa_bNeBSoa9w-wqnFeicdwExMzc3EPpvV-rDeTaLDFw8V2wYlM8500idXlG1rdiZlVSGZOxZE4MZo_y0NP-Ywqg2ODVjBOOktDpamSc8PjQDcVl6dRd2TduDUiR21dgvQ4N6pDlSqn7MfZcF5IwQQMXi2erlW4XIfHzhrZxZxICOKJxCx6nX3yqoLI6yzX-WYRkOrcbFX4FBrZ60QpZYtg3DUJoTX7Am2q-7b3XK8IRf-gF0-ni0?></g></svg>